<mxfile host="app.diagrams.net" modified="2023-04-03T20:36:15.490Z" agent="Mozilla/5.0 (Windows NT 10.0; Win64; x64) AppleWebKit/537.36 (KHTML, like Gecko) Chrome/111.0.0.0 Safari/537.36" etag="vDwcJeBDF7OS6A3y3oEa" version="21.1.4" type="github">
  <diagram name="Page-1" id="ytIRI_bpf31qfXzrR7FH">
    <mxGraphModel dx="2183" dy="2329" grid="1" gridSize="10" guides="1" tooltips="1" connect="1" arrows="1" fold="1" page="1" pageScale="1" pageWidth="850" pageHeight="1100" background="none" math="0" shadow="0">
      <root>
        <mxCell id="0" />
        <mxCell id="1" parent="0" />
        <mxCell id="xCRmx5UfHdt6KgPNWkzm-40" value="" style="edgeStyle=orthogonalEdgeStyle;rounded=0;orthogonalLoop=1;jettySize=auto;html=1;" edge="1" parent="1" source="xCRmx5UfHdt6KgPNWkzm-34" target="xCRmx5UfHdt6KgPNWkzm-37">
          <mxGeometry relative="1" as="geometry" />
        </mxCell>
        <mxCell id="xCRmx5UfHdt6KgPNWkzm-34" value="" style="swimlane;whiteSpace=wrap;html=1;swimlaneLine=1;dropTarget=1;collapsible=1;" vertex="1" parent="1">
          <mxGeometry x="1423.5" y="1464.33" width="170" height="90.67" as="geometry">
            <mxRectangle x="912" y="1459.33" width="168" height="30" as="alternateBounds" />
          </mxGeometry>
        </mxCell>
        <mxCell id="xCRmx5UfHdt6KgPNWkzm-35" value="&lt;ol&gt;&lt;li&gt;Name&lt;/li&gt;&lt;li&gt;Email&lt;/li&gt;&lt;li&gt;Date of Birth&lt;/li&gt;&lt;li&gt;Security Q/A&lt;/li&gt;&lt;/ol&gt;" style="text;strokeColor=none;fillColor=none;html=1;whiteSpace=wrap;verticalAlign=top;overflow=hidden;align=left;horizontal=1;labelPosition=center;verticalLabelPosition=middle;spacingLeft=-25;spacingTop=-15;" vertex="1" parent="xCRmx5UfHdt6KgPNWkzm-34">
          <mxGeometry y="23" width="154" height="67" as="geometry" />
        </mxCell>
        <mxCell id="xCRmx5UfHdt6KgPNWkzm-48" value="" style="edgeStyle=orthogonalEdgeStyle;rounded=0;orthogonalLoop=1;jettySize=auto;html=1;entryX=0.495;entryY=-0.03;entryDx=0;entryDy=0;entryPerimeter=0;" edge="1" parent="1" source="xCRmx5UfHdt6KgPNWkzm-32" target="xCRmx5UfHdt6KgPNWkzm-36">
          <mxGeometry relative="1" as="geometry" />
        </mxCell>
        <mxCell id="xCRmx5UfHdt6KgPNWkzm-32" value="" style="swimlane;whiteSpace=wrap;html=1;swimlaneLine=1;dropTarget=1;collapsible=1;" vertex="1" parent="1">
          <mxGeometry x="1192" y="1464.33" width="170" height="100" as="geometry">
            <mxRectangle x="912" y="1459.33" width="168" height="30" as="alternateBounds" />
          </mxGeometry>
        </mxCell>
        <mxCell id="xCRmx5UfHdt6KgPNWkzm-33" value="&lt;ol&gt;&lt;li&gt;Name&lt;/li&gt;&lt;li&gt;Email&lt;/li&gt;&lt;li style=&quot;border-color: var(--border-color);&quot;&gt;Job Title&lt;/li&gt;&lt;li&gt;Date of Birth&lt;/li&gt;&lt;li&gt;Security Q/A&lt;/li&gt;&lt;/ol&gt;" style="text;strokeColor=none;fillColor=none;html=1;whiteSpace=wrap;verticalAlign=top;overflow=hidden;align=left;horizontal=1;labelPosition=center;verticalLabelPosition=middle;spacingLeft=-25;spacingTop=-15;" vertex="1" parent="xCRmx5UfHdt6KgPNWkzm-32">
          <mxGeometry y="23" width="154" height="74" as="geometry" />
        </mxCell>
        <mxCell id="xCRmx5UfHdt6KgPNWkzm-38" value="" style="edgeStyle=orthogonalEdgeStyle;rounded=0;orthogonalLoop=1;jettySize=auto;html=1;" edge="1" parent="1" source="xCRmx5UfHdt6KgPNWkzm-30" target="xCRmx5UfHdt6KgPNWkzm-29">
          <mxGeometry relative="1" as="geometry" />
        </mxCell>
        <mxCell id="xCRmx5UfHdt6KgPNWkzm-30" value="" style="swimlane;whiteSpace=wrap;html=1;swimlaneLine=1;dropTarget=1;collapsible=1;" vertex="1" parent="1">
          <mxGeometry x="953" y="1464.33" width="170" height="100" as="geometry">
            <mxRectangle x="912" y="1459.33" width="168" height="30" as="alternateBounds" />
          </mxGeometry>
        </mxCell>
        <mxCell id="xCRmx5UfHdt6KgPNWkzm-31" value="&lt;ol&gt;&lt;li&gt;Name&lt;/li&gt;&lt;li&gt;Email&lt;/li&gt;&lt;li style=&quot;border-color: var(--border-color);&quot;&gt;Job Title&lt;/li&gt;&lt;li&gt;Date of Birth&lt;/li&gt;&lt;li&gt;Security Q/A&lt;/li&gt;&lt;/ol&gt;" style="text;strokeColor=none;fillColor=none;html=1;whiteSpace=wrap;verticalAlign=top;overflow=hidden;align=left;horizontal=1;labelPosition=center;verticalLabelPosition=middle;spacingLeft=-25;spacingTop=-15;" vertex="1" parent="xCRmx5UfHdt6KgPNWkzm-30">
          <mxGeometry y="23" width="154" height="74" as="geometry" />
        </mxCell>
        <mxCell id="xCRmx5UfHdt6KgPNWkzm-2" value="" style="swimlane;whiteSpace=wrap;html=1;swimlaneLine=1;dropTarget=1;collapsible=1;" vertex="1" parent="1">
          <mxGeometry x="1194" y="1298.3999999999999" width="160" height="90" as="geometry">
            <mxRectangle x="393" y="290" width="160" height="30" as="alternateBounds" />
          </mxGeometry>
        </mxCell>
        <mxCell id="xCRmx5UfHdt6KgPNWkzm-3" value="&lt;ol&gt;&lt;li&gt;Add New Instructor&lt;/li&gt;&lt;li&gt;Add New Student&lt;/li&gt;&lt;li&gt;Add New Administrator&lt;/li&gt;&lt;li&gt;Return to Admin Menu&lt;/li&gt;&lt;/ol&gt;" style="text;strokeColor=none;fillColor=none;html=1;whiteSpace=wrap;verticalAlign=top;overflow=hidden;align=left;horizontal=1;labelPosition=center;verticalLabelPosition=middle;spacingLeft=-25;spacingTop=-15;" vertex="1" parent="xCRmx5UfHdt6KgPNWkzm-2">
          <mxGeometry x="6" y="26" width="154" height="64" as="geometry" />
        </mxCell>
        <mxCell id="6Rt76ZgGS8mn4p0-sc7o-412" value="" style="edgeStyle=orthogonalEdgeStyle;rounded=0;orthogonalLoop=1;jettySize=auto;html=1;" parent="1" source="6Rt76ZgGS8mn4p0-sc7o-409" target="6Rt76ZgGS8mn4p0-sc7o-411" edge="1">
          <mxGeometry relative="1" as="geometry" />
        </mxCell>
        <mxCell id="6Rt76ZgGS8mn4p0-sc7o-409" value="" style="swimlane;whiteSpace=wrap;html=1;swimlaneLine=1;dropTarget=1;collapsible=1;" parent="1" vertex="1">
          <mxGeometry x="569.37" y="1818.62" width="190" height="80" as="geometry">
            <mxRectangle x="393" y="290" width="160" height="30" as="alternateBounds" />
          </mxGeometry>
        </mxCell>
        <mxCell id="6Rt76ZgGS8mn4p0-sc7o-410" value="&lt;ol&gt;&lt;li&gt;&lt;span style=&quot;background-color: initial;&quot;&gt;Change User Information&lt;/span&gt;&lt;br&gt;&lt;/li&gt;&lt;li&gt;Block/Unblock User&lt;/li&gt;&lt;li&gt;Cancel&lt;/li&gt;&lt;/ol&gt;" style="text;strokeColor=none;fillColor=none;html=1;whiteSpace=wrap;verticalAlign=top;overflow=hidden;align=left;horizontal=1;labelPosition=center;verticalLabelPosition=middle;spacingLeft=-25;spacingTop=-15;pointerEvents=1;arcSize=12;" parent="6Rt76ZgGS8mn4p0-sc7o-409" vertex="1">
          <mxGeometry x="6" y="26" width="154" height="54" as="geometry" />
        </mxCell>
        <mxCell id="6Rt76ZgGS8mn4p0-sc7o-392" value="" style="edgeStyle=orthogonalEdgeStyle;rounded=0;orthogonalLoop=1;jettySize=auto;html=1;" parent="1" source="6Rt76ZgGS8mn4p0-sc7o-382" target="6Rt76ZgGS8mn4p0-sc7o-389" edge="1">
          <mxGeometry relative="1" as="geometry" />
        </mxCell>
        <mxCell id="6Rt76ZgGS8mn4p0-sc7o-382" value="" style="swimlane;whiteSpace=wrap;html=1;swimlaneLine=1;dropTarget=1;collapsible=1;" parent="1" vertex="1">
          <mxGeometry x="349.37" y="1818.62" width="180" height="80" as="geometry">
            <mxRectangle x="380" y="1800" width="180" height="30" as="alternateBounds" />
          </mxGeometry>
        </mxCell>
        <mxCell id="6Rt76ZgGS8mn4p0-sc7o-383" value="&lt;ol&gt;&lt;li&gt;Add&lt;/li&gt;&lt;li&gt;Remove&lt;/li&gt;&lt;li&gt;Cancel&lt;/li&gt;&lt;/ol&gt;" style="text;strokeColor=none;fillColor=none;html=1;whiteSpace=wrap;verticalAlign=top;overflow=hidden;align=left;horizontal=1;labelPosition=center;verticalLabelPosition=middle;spacingLeft=-25;spacingTop=-15;" parent="6Rt76ZgGS8mn4p0-sc7o-382" vertex="1">
          <mxGeometry x="6" y="26" width="154" height="54" as="geometry" />
        </mxCell>
        <mxCell id="6Rt76ZgGS8mn4p0-sc7o-359" value="" style="edgeStyle=orthogonalEdgeStyle;rounded=0;orthogonalLoop=1;jettySize=auto;html=1;" parent="1" source="6Rt76ZgGS8mn4p0-sc7o-356" target="6Rt76ZgGS8mn4p0-sc7o-351" edge="1">
          <mxGeometry relative="1" as="geometry">
            <Array as="points">
              <mxPoint x="187.37" y="1918.62" />
              <mxPoint x="187.37" y="1918.62" />
            </Array>
          </mxGeometry>
        </mxCell>
        <mxCell id="6Rt76ZgGS8mn4p0-sc7o-356" value="" style="swimlane;whiteSpace=wrap;html=1;swimlaneLine=1;dropTarget=1;collapsible=1;" parent="1" vertex="1">
          <mxGeometry x="103.87" y="1818.62" width="160" height="80" as="geometry">
            <mxRectangle x="393" y="290" width="160" height="30" as="alternateBounds" />
          </mxGeometry>
        </mxCell>
        <mxCell id="6Rt76ZgGS8mn4p0-sc7o-357" value="&lt;ol&gt;&lt;li&gt;Add&lt;/li&gt;&lt;li&gt;Remove&lt;/li&gt;&lt;li&gt;Cancel&lt;/li&gt;&lt;/ol&gt;" style="text;strokeColor=none;fillColor=none;html=1;whiteSpace=wrap;verticalAlign=top;overflow=hidden;align=left;horizontal=1;labelPosition=center;verticalLabelPosition=middle;spacingLeft=-25;spacingTop=-15;" parent="6Rt76ZgGS8mn4p0-sc7o-356" vertex="1">
          <mxGeometry x="6" y="26" width="154" height="54" as="geometry" />
        </mxCell>
        <mxCell id="6Rt76ZgGS8mn4p0-sc7o-338" value="" style="edgeStyle=orthogonalEdgeStyle;rounded=0;orthogonalLoop=1;jettySize=auto;html=1;" parent="1" source="6Rt76ZgGS8mn4p0-sc7o-327" target="6Rt76ZgGS8mn4p0-sc7o-334" edge="1">
          <mxGeometry relative="1" as="geometry" />
        </mxCell>
        <mxCell id="6Rt76ZgGS8mn4p0-sc7o-327" value="" style="swimlane;whiteSpace=wrap;html=1;swimlaneLine=1;dropTarget=1;collapsible=1;" parent="1" vertex="1">
          <mxGeometry x="616.5" y="1424" width="160" height="90" as="geometry">
            <mxRectangle x="393" y="290" width="160" height="30" as="alternateBounds" />
          </mxGeometry>
        </mxCell>
        <mxCell id="6Rt76ZgGS8mn4p0-sc7o-328" value="&lt;ol&gt;&lt;li&gt;View Class Averages&lt;/li&gt;&lt;li&gt;View Student Transcript&lt;/li&gt;&lt;li&gt;View Overall Statistics&lt;/li&gt;&lt;li&gt;Use Graphs and Charts&lt;/li&gt;&lt;/ol&gt;" style="text;strokeColor=none;fillColor=none;html=1;whiteSpace=wrap;verticalAlign=top;overflow=hidden;align=left;horizontal=1;labelPosition=center;verticalLabelPosition=middle;spacingLeft=-25;spacingTop=-15;" parent="6Rt76ZgGS8mn4p0-sc7o-327" vertex="1">
          <mxGeometry x="6" y="26" width="154" height="64" as="geometry" />
        </mxCell>
        <mxCell id="6Rt76ZgGS8mn4p0-sc7o-337" value="" style="edgeStyle=orthogonalEdgeStyle;rounded=0;orthogonalLoop=1;jettySize=auto;html=1;" parent="1" source="6Rt76ZgGS8mn4p0-sc7o-325" target="6Rt76ZgGS8mn4p0-sc7o-333" edge="1">
          <mxGeometry relative="1" as="geometry" />
        </mxCell>
        <mxCell id="6Rt76ZgGS8mn4p0-sc7o-325" value="" style="swimlane;whiteSpace=wrap;html=1;swimlaneLine=1;dropTarget=1;collapsible=1;" parent="1" vertex="1">
          <mxGeometry x="437.5" y="1424" width="160" height="90" as="geometry">
            <mxRectangle x="393" y="290" width="160" height="30" as="alternateBounds" />
          </mxGeometry>
        </mxCell>
        <mxCell id="6Rt76ZgGS8mn4p0-sc7o-326" value="&lt;ol&gt;&lt;li&gt;View Class Averages&lt;/li&gt;&lt;li&gt;View Student Transcript&lt;/li&gt;&lt;li&gt;View Overall Statistics&lt;/li&gt;&lt;li&gt;Use Graphs and Charts&lt;/li&gt;&lt;/ol&gt;" style="text;strokeColor=none;fillColor=none;html=1;whiteSpace=wrap;verticalAlign=top;overflow=hidden;align=left;horizontal=1;labelPosition=center;verticalLabelPosition=middle;spacingLeft=-25;spacingTop=-15;" parent="6Rt76ZgGS8mn4p0-sc7o-325" vertex="1">
          <mxGeometry x="6" y="26" width="154" height="64" as="geometry" />
        </mxCell>
        <mxCell id="6Rt76ZgGS8mn4p0-sc7o-339" value="" style="shape=link;html=1;rounded=0;" parent="6Rt76ZgGS8mn4p0-sc7o-325" edge="1">
          <mxGeometry width="100" relative="1" as="geometry">
            <mxPoint x="-354.5" y="219.17000000000007" as="sourcePoint" />
            <mxPoint x="335.5" y="219.17000000000007" as="targetPoint" />
          </mxGeometry>
        </mxCell>
        <mxCell id="6Rt76ZgGS8mn4p0-sc7o-336" value="" style="edgeStyle=orthogonalEdgeStyle;rounded=0;orthogonalLoop=1;jettySize=auto;html=1;" parent="1" source="6Rt76ZgGS8mn4p0-sc7o-323" target="6Rt76ZgGS8mn4p0-sc7o-332" edge="1">
          <mxGeometry relative="1" as="geometry">
            <Array as="points">
              <mxPoint x="344" y="1520" />
              <mxPoint x="344" y="1520" />
            </Array>
          </mxGeometry>
        </mxCell>
        <mxCell id="6Rt76ZgGS8mn4p0-sc7o-323" value="" style="swimlane;whiteSpace=wrap;html=1;swimlaneLine=1;dropTarget=1;collapsible=1;" parent="1" vertex="1">
          <mxGeometry x="260" y="1424" width="160" height="90" as="geometry">
            <mxRectangle x="393" y="290" width="160" height="30" as="alternateBounds" />
          </mxGeometry>
        </mxCell>
        <mxCell id="6Rt76ZgGS8mn4p0-sc7o-324" value="&lt;ol&gt;&lt;li&gt;Assign Instructors&lt;/li&gt;&lt;li&gt;Change Student Classes&lt;/li&gt;&lt;li&gt;Create/Delete Classes&lt;/li&gt;&lt;li&gt;Search Classes&lt;/li&gt;&lt;/ol&gt;" style="text;strokeColor=none;fillColor=none;html=1;whiteSpace=wrap;verticalAlign=top;overflow=hidden;align=left;horizontal=1;labelPosition=center;verticalLabelPosition=middle;spacingLeft=-25;spacingTop=-15;" parent="6Rt76ZgGS8mn4p0-sc7o-323" vertex="1">
          <mxGeometry x="6" y="26" width="154" height="64" as="geometry" />
        </mxCell>
        <mxCell id="6Rt76ZgGS8mn4p0-sc7o-331" value="" style="edgeStyle=orthogonalEdgeStyle;rounded=0;orthogonalLoop=1;jettySize=auto;html=1;" parent="1" source="6Rt76ZgGS8mn4p0-sc7o-321" target="6Rt76ZgGS8mn4p0-sc7o-330" edge="1">
          <mxGeometry relative="1" as="geometry" />
        </mxCell>
        <mxCell id="6Rt76ZgGS8mn4p0-sc7o-321" value="" style="swimlane;whiteSpace=wrap;html=1;swimlaneLine=1;dropTarget=1;collapsible=1;" parent="1" vertex="1">
          <mxGeometry x="80.5" y="1424" width="160" height="90" as="geometry">
            <mxRectangle x="393" y="290" width="160" height="30" as="alternateBounds" />
          </mxGeometry>
        </mxCell>
        <mxCell id="6Rt76ZgGS8mn4p0-sc7o-322" value="&lt;ol&gt;&lt;li&gt;Add/Remove Student&lt;/li&gt;&lt;li&gt;Add/Remove Instructor&lt;/li&gt;&lt;li&gt;Search / Display Students &amp;amp; Instructors&lt;/li&gt;&lt;/ol&gt;" style="text;strokeColor=none;fillColor=none;html=1;whiteSpace=wrap;verticalAlign=top;overflow=hidden;align=left;horizontal=1;labelPosition=center;verticalLabelPosition=middle;spacingLeft=-25;spacingTop=-15;" parent="6Rt76ZgGS8mn4p0-sc7o-321" vertex="1">
          <mxGeometry x="6" y="26" width="154" height="64" as="geometry" />
        </mxCell>
        <mxCell id="6Rt76ZgGS8mn4p0-sc7o-232" value="" style="swimlane;whiteSpace=wrap;html=1;swimlaneLine=1;dropTarget=1;collapsible=1;" parent="1" vertex="1">
          <mxGeometry x="1078" y="545" width="160" height="60" as="geometry">
            <mxRectangle x="1322.5" y="307" width="160" height="30" as="alternateBounds" />
          </mxGeometry>
        </mxCell>
        <mxCell id="6Rt76ZgGS8mn4p0-sc7o-233" value="&lt;ol&gt;&lt;li&gt;Register for Classes&lt;/li&gt;&lt;li&gt;Main Menu&lt;/li&gt;&lt;/ol&gt;" style="text;strokeColor=none;fillColor=none;html=1;whiteSpace=wrap;verticalAlign=top;overflow=hidden;align=left;horizontal=1;labelPosition=center;verticalLabelPosition=middle;spacingLeft=-25;spacingTop=-15;" parent="6Rt76ZgGS8mn4p0-sc7o-232" vertex="1">
          <mxGeometry x="6" y="26" width="144" height="34" as="geometry" />
        </mxCell>
        <mxCell id="6Rt76ZgGS8mn4p0-sc7o-226" style="edgeStyle=orthogonalEdgeStyle;rounded=0;orthogonalLoop=1;jettySize=auto;html=1;exitX=0.5;exitY=1;exitDx=0;exitDy=0;entryX=0.5;entryY=0;entryDx=0;entryDy=0;entryPerimeter=0;" parent="1" source="6Rt76ZgGS8mn4p0-sc7o-219" target="6Rt76ZgGS8mn4p0-sc7o-170" edge="1">
          <mxGeometry relative="1" as="geometry" />
        </mxCell>
        <mxCell id="6Rt76ZgGS8mn4p0-sc7o-219" value="" style="swimlane;whiteSpace=wrap;html=1;swimlaneLine=1;dropTarget=1;collapsible=1;" parent="1" vertex="1">
          <mxGeometry x="1080" y="156.23" width="160" height="69.87" as="geometry">
            <mxRectangle x="393" y="290" width="160" height="30" as="alternateBounds" />
          </mxGeometry>
        </mxCell>
        <mxCell id="6Rt76ZgGS8mn4p0-sc7o-220" value="&lt;ol&gt;&lt;li&gt;Register New Student&lt;/li&gt;&lt;li&gt;Main Menu&lt;/li&gt;&lt;/ol&gt;" style="text;strokeColor=none;fillColor=none;html=1;whiteSpace=wrap;verticalAlign=top;overflow=hidden;align=left;horizontal=1;labelPosition=center;verticalLabelPosition=middle;spacingLeft=-25;spacingTop=-15;" parent="6Rt76ZgGS8mn4p0-sc7o-219" vertex="1">
          <mxGeometry x="6" y="26" width="144" height="34" as="geometry" />
        </mxCell>
        <mxCell id="6Rt76ZgGS8mn4p0-sc7o-202" style="edgeStyle=orthogonalEdgeStyle;rounded=0;orthogonalLoop=1;jettySize=auto;html=1;exitX=0.5;exitY=1;exitDx=0;exitDy=0;entryX=0.5;entryY=0;entryDx=0;entryDy=0;" parent="1" source="6Rt76ZgGS8mn4p0-sc7o-198" target="6Rt76ZgGS8mn4p0-sc7o-196" edge="1">
          <mxGeometry relative="1" as="geometry" />
        </mxCell>
        <mxCell id="6Rt76ZgGS8mn4p0-sc7o-198" value="" style="swimlane;whiteSpace=wrap;html=1;swimlaneLine=1;dropTarget=1;collapsible=1;" parent="1" vertex="1">
          <mxGeometry x="1321.5" y="314" width="160" height="96" as="geometry">
            <mxRectangle x="1321.5" y="314" width="160" height="30" as="alternateBounds" />
          </mxGeometry>
        </mxCell>
        <mxCell id="6Rt76ZgGS8mn4p0-sc7o-199" value="&lt;ol&gt;&lt;li&gt;Name&lt;/li&gt;&lt;li&gt;Email&lt;/li&gt;&lt;li&gt;Date of Birth&lt;/li&gt;&lt;li&gt;Security Q/A&lt;/li&gt;&lt;/ol&gt;" style="text;strokeColor=none;fillColor=none;html=1;whiteSpace=wrap;verticalAlign=top;overflow=hidden;align=left;horizontal=1;labelPosition=center;verticalLabelPosition=middle;spacingLeft=-25;spacingTop=-15;" parent="6Rt76ZgGS8mn4p0-sc7o-198" vertex="1">
          <mxGeometry x="6" y="26" width="144" height="64" as="geometry" />
        </mxCell>
        <mxCell id="6Rt76ZgGS8mn4p0-sc7o-97" style="edgeStyle=orthogonalEdgeStyle;rounded=0;orthogonalLoop=1;jettySize=auto;html=1;exitX=0.5;exitY=1;exitDx=0;exitDy=0;entryX=0.5;entryY=0;entryDx=0;entryDy=0;" parent="1" source="6Rt76ZgGS8mn4p0-sc7o-83" target="6Rt76ZgGS8mn4p0-sc7o-93" edge="1">
          <mxGeometry relative="1" as="geometry" />
        </mxCell>
        <mxCell id="6Rt76ZgGS8mn4p0-sc7o-83" value="" style="swimlane;whiteSpace=wrap;html=1;swimlaneLine=1;dropTarget=1;collapsible=1;" parent="1" vertex="1">
          <mxGeometry x="60.5" y="779" width="160" height="90" as="geometry">
            <mxRectangle x="393" y="290" width="160" height="30" as="alternateBounds" />
          </mxGeometry>
        </mxCell>
        <mxCell id="6Rt76ZgGS8mn4p0-sc7o-84" value="&lt;ol&gt;&lt;li&gt;User Accounts&lt;/li&gt;&lt;li&gt;Add/Remove Classes&lt;/li&gt;&lt;li&gt;Student Progress&lt;/li&gt;&lt;li&gt;Messages&lt;/li&gt;&lt;/ol&gt;" style="text;strokeColor=none;fillColor=none;html=1;whiteSpace=wrap;verticalAlign=top;overflow=hidden;align=left;horizontal=1;labelPosition=center;verticalLabelPosition=middle;spacingLeft=-25;spacingTop=-15;" parent="6Rt76ZgGS8mn4p0-sc7o-83" vertex="1">
          <mxGeometry x="6" y="26" width="154" height="64" as="geometry" />
        </mxCell>
        <mxCell id="6Rt76ZgGS8mn4p0-sc7o-103" style="edgeStyle=orthogonalEdgeStyle;rounded=0;orthogonalLoop=1;jettySize=auto;html=1;exitX=0.5;exitY=1;exitDx=0;exitDy=0;entryX=0.5;entryY=0;entryDx=0;entryDy=0;" parent="1" source="6Rt76ZgGS8mn4p0-sc7o-78" target="6Rt76ZgGS8mn4p0-sc7o-92" edge="1">
          <mxGeometry relative="1" as="geometry" />
        </mxCell>
        <mxCell id="6Rt76ZgGS8mn4p0-sc7o-78" value="" style="swimlane;whiteSpace=wrap;html=1;swimlaneLine=1;dropTarget=1;collapsible=1;" parent="1" vertex="1">
          <mxGeometry x="244.5" y="779" width="160" height="80" as="geometry">
            <mxRectangle x="393" y="290" width="160" height="30" as="alternateBounds" />
          </mxGeometry>
        </mxCell>
        <mxCell id="6Rt76ZgGS8mn4p0-sc7o-79" value="&lt;ol&gt;&lt;li&gt;Classes&lt;/li&gt;&lt;li&gt;&lt;span style=&quot;background-color: initial;&quot;&gt;Messages&lt;/span&gt;&lt;br&gt;&lt;/li&gt;&lt;li&gt;Instructor Resources&lt;/li&gt;&lt;/ol&gt;" style="text;strokeColor=none;fillColor=none;html=1;whiteSpace=wrap;verticalAlign=top;overflow=hidden;align=left;horizontal=1;labelPosition=center;verticalLabelPosition=middle;spacingLeft=-25;spacingTop=-15;" parent="6Rt76ZgGS8mn4p0-sc7o-78" vertex="1">
          <mxGeometry x="6" y="26" width="144" height="44" as="geometry" />
        </mxCell>
        <mxCell id="6Rt76ZgGS8mn4p0-sc7o-80" value="" style="swimlane;whiteSpace=wrap;html=1;swimlaneLine=1;dropTarget=1;collapsible=1;" parent="1" vertex="1">
          <mxGeometry x="437.5" y="400.13" width="160" height="69.87" as="geometry">
            <mxRectangle x="393" y="290" width="160" height="30" as="alternateBounds" />
          </mxGeometry>
        </mxCell>
        <mxCell id="6Rt76ZgGS8mn4p0-sc7o-81" value="&lt;ol&gt;&lt;li&gt;Register New Student&lt;/li&gt;&lt;li&gt;Main Menu&lt;/li&gt;&lt;/ol&gt;" style="text;strokeColor=none;fillColor=none;html=1;whiteSpace=wrap;verticalAlign=top;overflow=hidden;align=left;horizontal=1;labelPosition=center;verticalLabelPosition=middle;spacingLeft=-25;spacingTop=-15;" parent="6Rt76ZgGS8mn4p0-sc7o-80" vertex="1">
          <mxGeometry x="6" y="26" width="144" height="34" as="geometry" />
        </mxCell>
        <mxCell id="6Rt76ZgGS8mn4p0-sc7o-91" style="edgeStyle=orthogonalEdgeStyle;rounded=0;orthogonalLoop=1;jettySize=auto;html=1;exitX=0.5;exitY=1;exitDx=0;exitDy=0;entryX=0.5;entryY=0;entryDx=0;entryDy=0;" parent="1" source="6Rt76ZgGS8mn4p0-sc7o-74" target="6Rt76ZgGS8mn4p0-sc7o-85" edge="1">
          <mxGeometry relative="1" as="geometry" />
        </mxCell>
        <mxCell id="6Rt76ZgGS8mn4p0-sc7o-74" value="" style="swimlane;whiteSpace=wrap;html=1;swimlaneLine=1;dropTarget=1;collapsible=1;" parent="1" vertex="1">
          <mxGeometry x="437.5" y="779" width="160" height="100" as="geometry">
            <mxRectangle x="393" y="290" width="160" height="30" as="alternateBounds" />
          </mxGeometry>
        </mxCell>
        <mxCell id="6Rt76ZgGS8mn4p0-sc7o-77" value="&lt;ol&gt;&lt;li&gt;Classes&lt;/li&gt;&lt;li&gt;View Transcript&lt;/li&gt;&lt;li&gt;Messages&lt;/li&gt;&lt;li&gt;Student Resources&lt;/li&gt;&lt;/ol&gt;" style="text;strokeColor=none;fillColor=none;html=1;whiteSpace=wrap;verticalAlign=top;overflow=hidden;align=left;horizontal=1;labelPosition=center;verticalLabelPosition=middle;spacingLeft=-25;spacingTop=-15;" parent="6Rt76ZgGS8mn4p0-sc7o-74" vertex="1">
          <mxGeometry x="6" y="26" width="144" height="64" as="geometry" />
        </mxCell>
        <mxCell id="6Rt76ZgGS8mn4p0-sc7o-23" style="edgeStyle=orthogonalEdgeStyle;rounded=0;orthogonalLoop=1;jettySize=auto;html=1;exitX=0.5;exitY=1;exitDx=0;exitDy=0;entryX=0.5;entryY=0;entryDx=0;entryDy=0;entryPerimeter=0;" parent="1" source="zeQAFEuLlaWNm11d6QBY-9" target="6Rt76ZgGS8mn4p0-sc7o-1" edge="1">
          <mxGeometry relative="1" as="geometry" />
        </mxCell>
        <mxCell id="zeQAFEuLlaWNm11d6QBY-9" value="" style="swimlane;whiteSpace=wrap;html=1;swimlaneLine=1;dropTarget=1;collapsible=1;" parent="1" vertex="1">
          <mxGeometry x="244.5" y="207" width="160" height="100" as="geometry">
            <mxRectangle x="200" y="98" width="159.25" height="30" as="alternateBounds" />
          </mxGeometry>
        </mxCell>
        <mxCell id="zeQAFEuLlaWNm11d6QBY-44" value="&lt;ul&gt;&lt;li&gt;Logo&lt;/li&gt;&lt;li&gt;1. Login&lt;/li&gt;&lt;li&gt;2. Register&lt;/li&gt;&lt;li&gt;3. Exit&lt;/li&gt;&lt;/ul&gt;" style="text;strokeColor=none;fillColor=none;html=1;whiteSpace=wrap;verticalAlign=middle;overflow=hidden;fontSize=12;fontFamily=Helvetica;fontColor=default;" parent="zeQAFEuLlaWNm11d6QBY-9" vertex="1">
          <mxGeometry x="-7.5" y="16.13" width="110" height="70" as="geometry" />
        </mxCell>
        <mxCell id="zeQAFEuLlaWNm11d6QBY-4" style="edgeStyle=orthogonalEdgeStyle;rounded=0;orthogonalLoop=1;jettySize=auto;html=1;exitX=1;exitY=0.5;exitDx=0;exitDy=0;exitPerimeter=0;entryX=0;entryY=0.5;entryDx=0;entryDy=0;" parent="1" source="zeQAFEuLlaWNm11d6QBY-1" target="zeQAFEuLlaWNm11d6QBY-2" edge="1">
          <mxGeometry relative="1" as="geometry">
            <mxPoint x="197.5" y="195.755" as="sourcePoint" />
          </mxGeometry>
        </mxCell>
        <mxCell id="zeQAFEuLlaWNm11d6QBY-1" value="Classroom Management" style="strokeWidth=2;html=1;shape=mxgraph.flowchart.terminator;whiteSpace=wrap;" parent="1" vertex="1">
          <mxGeometry x="85.5" y="171.38" width="100" height="48.75" as="geometry" />
        </mxCell>
        <mxCell id="zeQAFEuLlaWNm11d6QBY-17" value="&lt;b&gt;&lt;font style=&quot;font-size: 22px;&quot;&gt;Classes&lt;/font&gt;&lt;/b&gt;" style="text;html=1;strokeColor=none;fillColor=none;align=center;verticalAlign=middle;whiteSpace=wrap;rounded=0;fontSize=12;fontFamily=Helvetica;fontColor=default;" parent="1" vertex="1">
          <mxGeometry x="414.5" y="-1050" width="60" height="30" as="geometry" />
        </mxCell>
        <mxCell id="zeQAFEuLlaWNm11d6QBY-54" value="Student" style="swimlane;fontStyle=1;align=center;verticalAlign=top;childLayout=stackLayout;horizontal=1;startSize=26;horizontalStack=0;resizeParent=1;resizeParentMax=0;resizeLast=0;collapsible=1;marginBottom=0;whiteSpace=wrap;html=1;strokeColor=default;fontFamily=Helvetica;fontSize=12;fontColor=default;fillColor=default;" parent="1" vertex="1">
          <mxGeometry x="234.5" y="-613.13" width="200" height="150" as="geometry">
            <mxRectangle x="600" y="80" width="200" height="30" as="alternateBounds" />
          </mxGeometry>
        </mxCell>
        <mxCell id="zeQAFEuLlaWNm11d6QBY-55" value="*Parent User&lt;br&gt;&amp;lt;vector&amp;gt; Grades&lt;br&gt;&amp;lt;vector&amp;gt; Classes" style="text;strokeColor=none;fillColor=none;align=left;verticalAlign=top;spacingLeft=4;spacingRight=4;overflow=hidden;rotatable=0;points=[[0,0.5],[1,0.5]];portConstraint=eastwest;whiteSpace=wrap;html=1;fontSize=12;fontFamily=Helvetica;fontColor=default;" parent="zeQAFEuLlaWNm11d6QBY-54" vertex="1">
          <mxGeometry y="26" width="200" height="54" as="geometry" />
        </mxCell>
        <mxCell id="zeQAFEuLlaWNm11d6QBY-56" value="" style="line;strokeWidth=1;fillColor=none;align=left;verticalAlign=middle;spacingTop=-1;spacingLeft=3;spacingRight=3;rotatable=0;labelPosition=right;points=[];portConstraint=eastwest;strokeColor=inherit;fontFamily=Helvetica;fontSize=12;fontColor=default;startSize=23;html=1;" parent="zeQAFEuLlaWNm11d6QBY-54" vertex="1">
          <mxGeometry y="80" width="200" height="8" as="geometry" />
        </mxCell>
        <mxCell id="zeQAFEuLlaWNm11d6QBY-57" value="Overload operation &quot;+, -&quot;&lt;br&gt;&lt;span style=&quot;white-space: pre;&quot;&gt; &lt;/span&gt;Virtual Classroom&lt;br&gt;&lt;span style=&quot;white-space: pre;&quot;&gt; &lt;/span&gt;Vector of Students" style="text;strokeColor=none;fillColor=none;align=left;verticalAlign=top;spacingLeft=4;spacingRight=4;overflow=hidden;rotatable=0;points=[[0,0.5],[1,0.5]];portConstraint=eastwest;whiteSpace=wrap;html=1;fontSize=12;fontFamily=Helvetica;fontColor=default;" parent="zeQAFEuLlaWNm11d6QBY-54" vertex="1">
          <mxGeometry y="88" width="200" height="62" as="geometry" />
        </mxCell>
        <mxCell id="zeQAFEuLlaWNm11d6QBY-58" value="Assignment" style="swimlane;fontStyle=1;align=center;verticalAlign=top;childLayout=stackLayout;horizontal=1;startSize=26;horizontalStack=0;resizeParent=1;resizeParentMax=0;resizeLast=0;collapsible=1;marginBottom=0;whiteSpace=wrap;html=1;strokeColor=default;fontFamily=Helvetica;fontSize=12;fontColor=default;fillColor=default;" parent="1" vertex="1">
          <mxGeometry x="454.5" y="-830" width="200" height="160" as="geometry">
            <mxRectangle x="600" y="280" width="200" height="30" as="alternateBounds" />
          </mxGeometry>
        </mxCell>
        <mxCell id="zeQAFEuLlaWNm11d6QBY-59" value="Title&lt;br&gt;Description&lt;br&gt;Due Date&lt;br&gt;Maximum Points&lt;br&gt;Attached Files" style="text;strokeColor=none;fillColor=none;align=left;verticalAlign=top;spacingLeft=4;spacingRight=4;overflow=hidden;rotatable=0;points=[[0,0.5],[1,0.5]];portConstraint=eastwest;whiteSpace=wrap;html=1;fontSize=12;fontFamily=Helvetica;fontColor=default;" parent="zeQAFEuLlaWNm11d6QBY-58" vertex="1">
          <mxGeometry y="26" width="200" height="84" as="geometry" />
        </mxCell>
        <mxCell id="zeQAFEuLlaWNm11d6QBY-60" value="" style="line;strokeWidth=1;fillColor=none;align=left;verticalAlign=middle;spacingTop=-1;spacingLeft=3;spacingRight=3;rotatable=0;labelPosition=right;points=[];portConstraint=eastwest;strokeColor=inherit;fontFamily=Helvetica;fontSize=12;fontColor=default;startSize=23;html=1;" parent="zeQAFEuLlaWNm11d6QBY-58" vertex="1">
          <mxGeometry y="110" width="200" height="8" as="geometry" />
        </mxCell>
        <mxCell id="zeQAFEuLlaWNm11d6QBY-61" value="Overload operation &quot;&amp;lt;, &amp;gt;&quot;&lt;br&gt;&lt;span style=&quot;white-space: pre;&quot;&gt; &lt;/span&gt;Compare based on due dates" style="text;strokeColor=none;fillColor=none;align=left;verticalAlign=top;spacingLeft=4;spacingRight=4;overflow=hidden;rotatable=0;points=[[0,0.5],[1,0.5]];portConstraint=eastwest;whiteSpace=wrap;html=1;fontSize=12;fontFamily=Helvetica;fontColor=default;" parent="zeQAFEuLlaWNm11d6QBY-58" vertex="1">
          <mxGeometry y="118" width="200" height="42" as="geometry" />
        </mxCell>
        <mxCell id="zeQAFEuLlaWNm11d6QBY-62" value="Evaluation [Quiz/Test]" style="swimlane;fontStyle=1;align=center;verticalAlign=top;childLayout=stackLayout;horizontal=1;startSize=26;horizontalStack=0;resizeParent=1;resizeParentMax=0;resizeLast=0;collapsible=1;marginBottom=0;whiteSpace=wrap;html=1;strokeColor=default;fontFamily=Helvetica;fontSize=12;fontColor=default;fillColor=default;" parent="1" vertex="1">
          <mxGeometry x="454.5" y="-660" width="200" height="140" as="geometry">
            <mxRectangle x="600" y="320" width="200" height="30" as="alternateBounds" />
          </mxGeometry>
        </mxCell>
        <mxCell id="zeQAFEuLlaWNm11d6QBY-63" value="Title&lt;br&gt;Description&lt;br&gt;Due Date&lt;br&gt;Maximum Points&lt;br&gt;" style="text;strokeColor=none;fillColor=none;align=left;verticalAlign=top;spacingLeft=4;spacingRight=4;overflow=hidden;rotatable=0;points=[[0,0.5],[1,0.5]];portConstraint=eastwest;whiteSpace=wrap;html=1;fontSize=12;fontFamily=Helvetica;fontColor=default;" parent="zeQAFEuLlaWNm11d6QBY-62" vertex="1">
          <mxGeometry y="26" width="200" height="74" as="geometry" />
        </mxCell>
        <mxCell id="zeQAFEuLlaWNm11d6QBY-64" value="" style="line;strokeWidth=1;fillColor=none;align=left;verticalAlign=middle;spacingTop=-1;spacingLeft=3;spacingRight=3;rotatable=0;labelPosition=right;points=[];portConstraint=eastwest;strokeColor=inherit;fontFamily=Helvetica;fontSize=12;fontColor=default;startSize=23;html=1;" parent="zeQAFEuLlaWNm11d6QBY-62" vertex="1">
          <mxGeometry y="100" width="200" height="8" as="geometry" />
        </mxCell>
        <mxCell id="zeQAFEuLlaWNm11d6QBY-65" value="Methods&lt;br&gt;" style="text;strokeColor=none;fillColor=none;align=left;verticalAlign=top;spacingLeft=4;spacingRight=4;overflow=hidden;rotatable=0;points=[[0,0.5],[1,0.5]];portConstraint=eastwest;whiteSpace=wrap;html=1;fontSize=12;fontFamily=Helvetica;fontColor=default;" parent="zeQAFEuLlaWNm11d6QBY-62" vertex="1">
          <mxGeometry y="108" width="200" height="32" as="geometry" />
        </mxCell>
        <mxCell id="zeQAFEuLlaWNm11d6QBY-66" value="Discussion" style="swimlane;fontStyle=1;align=center;verticalAlign=top;childLayout=stackLayout;horizontal=1;startSize=26;horizontalStack=0;resizeParent=1;resizeParentMax=0;resizeLast=0;collapsible=1;marginBottom=0;whiteSpace=wrap;html=1;strokeColor=default;fontFamily=Helvetica;fontSize=12;fontColor=default;fillColor=default;" parent="1" vertex="1">
          <mxGeometry x="454.5" y="-510" width="200" height="160" as="geometry">
            <mxRectangle x="600" y="280" width="200" height="30" as="alternateBounds" />
          </mxGeometry>
        </mxCell>
        <mxCell id="zeQAFEuLlaWNm11d6QBY-67" value="Title&lt;br&gt;Description&lt;br&gt;Due Date&lt;br&gt;Maximum Points&lt;br&gt;Forum Board" style="text;strokeColor=none;fillColor=none;align=left;verticalAlign=top;spacingLeft=4;spacingRight=4;overflow=hidden;rotatable=0;points=[[0,0.5],[1,0.5]];portConstraint=eastwest;whiteSpace=wrap;html=1;fontSize=12;fontFamily=Helvetica;fontColor=default;" parent="zeQAFEuLlaWNm11d6QBY-66" vertex="1">
          <mxGeometry y="26" width="200" height="84" as="geometry" />
        </mxCell>
        <mxCell id="zeQAFEuLlaWNm11d6QBY-68" value="" style="line;strokeWidth=1;fillColor=none;align=left;verticalAlign=middle;spacingTop=-1;spacingLeft=3;spacingRight=3;rotatable=0;labelPosition=right;points=[];portConstraint=eastwest;strokeColor=inherit;fontFamily=Helvetica;fontSize=12;fontColor=default;startSize=23;html=1;" parent="zeQAFEuLlaWNm11d6QBY-66" vertex="1">
          <mxGeometry y="110" width="200" height="8" as="geometry" />
        </mxCell>
        <mxCell id="zeQAFEuLlaWNm11d6QBY-69" value="Overload operation &quot;&amp;lt;, &amp;gt;&quot;&lt;br&gt;&lt;span style=&quot;white-space: pre;&quot;&gt; &lt;/span&gt;Compare based on due dates" style="text;strokeColor=none;fillColor=none;align=left;verticalAlign=top;spacingLeft=4;spacingRight=4;overflow=hidden;rotatable=0;points=[[0,0.5],[1,0.5]];portConstraint=eastwest;whiteSpace=wrap;html=1;fontSize=12;fontFamily=Helvetica;fontColor=default;" parent="zeQAFEuLlaWNm11d6QBY-66" vertex="1">
          <mxGeometry y="118" width="200" height="42" as="geometry" />
        </mxCell>
        <mxCell id="zeQAFEuLlaWNm11d6QBY-70" value="Calendar" style="swimlane;fontStyle=1;align=center;verticalAlign=top;childLayout=stackLayout;horizontal=1;startSize=26;horizontalStack=0;resizeParent=1;resizeParentMax=0;resizeLast=0;collapsible=1;marginBottom=0;whiteSpace=wrap;html=1;strokeColor=default;fontFamily=Helvetica;fontSize=12;fontColor=default;fillColor=default;" parent="1" vertex="1">
          <mxGeometry x="454.5" y="-340" width="200" height="150" as="geometry">
            <mxRectangle x="600" y="280" width="200" height="30" as="alternateBounds" />
          </mxGeometry>
        </mxCell>
        <mxCell id="zeQAFEuLlaWNm11d6QBY-71" value="Assignment Due Dates&lt;br&gt;Quiz Due Dates&lt;br&gt;Exam Date&lt;br&gt;Other Events" style="text;strokeColor=none;fillColor=none;align=left;verticalAlign=top;spacingLeft=4;spacingRight=4;overflow=hidden;rotatable=0;points=[[0,0.5],[1,0.5]];portConstraint=eastwest;whiteSpace=wrap;html=1;fontSize=12;fontFamily=Helvetica;fontColor=default;" parent="zeQAFEuLlaWNm11d6QBY-70" vertex="1">
          <mxGeometry y="26" width="200" height="74" as="geometry" />
        </mxCell>
        <mxCell id="zeQAFEuLlaWNm11d6QBY-72" value="" style="line;strokeWidth=1;fillColor=none;align=left;verticalAlign=middle;spacingTop=-1;spacingLeft=3;spacingRight=3;rotatable=0;labelPosition=right;points=[];portConstraint=eastwest;strokeColor=inherit;fontFamily=Helvetica;fontSize=12;fontColor=default;startSize=23;html=1;" parent="zeQAFEuLlaWNm11d6QBY-70" vertex="1">
          <mxGeometry y="100" width="200" height="8" as="geometry" />
        </mxCell>
        <mxCell id="zeQAFEuLlaWNm11d6QBY-73" value="Overload operation &quot;+=, -=&quot;&lt;br&gt;&lt;span style=&quot;white-space: pre;&quot;&gt; &lt;/span&gt;Add or remove events" style="text;strokeColor=none;fillColor=none;align=left;verticalAlign=top;spacingLeft=4;spacingRight=4;overflow=hidden;rotatable=0;points=[[0,0.5],[1,0.5]];portConstraint=eastwest;whiteSpace=wrap;html=1;fontSize=12;fontFamily=Helvetica;fontColor=default;" parent="zeQAFEuLlaWNm11d6QBY-70" vertex="1">
          <mxGeometry y="108" width="200" height="42" as="geometry" />
        </mxCell>
        <mxCell id="zeQAFEuLlaWNm11d6QBY-74" value="Virtual Classroom" style="swimlane;fontStyle=1;align=center;verticalAlign=top;childLayout=stackLayout;horizontal=1;startSize=26;horizontalStack=0;resizeParent=1;resizeParentMax=0;resizeLast=0;collapsible=1;marginBottom=0;whiteSpace=wrap;html=1;strokeColor=default;fontFamily=Helvetica;fontSize=12;fontColor=default;fillColor=default;" parent="1" vertex="1">
          <mxGeometry x="454.5" y="-1006.8699999999999" width="200" height="170" as="geometry">
            <mxRectangle x="600" y="280" width="200" height="30" as="alternateBounds" />
          </mxGeometry>
        </mxCell>
        <mxCell id="zeQAFEuLlaWNm11d6QBY-75" value="Subject&lt;br&gt;Instructor&lt;br&gt;Assignments&lt;br&gt;Evaluations&lt;br&gt;Discussions&lt;br&gt;Calendar&lt;br&gt;&amp;lt;vector&amp;gt; Students" style="text;strokeColor=none;fillColor=none;align=left;verticalAlign=top;spacingLeft=4;spacingRight=4;overflow=hidden;rotatable=0;points=[[0,0.5],[1,0.5]];portConstraint=eastwest;whiteSpace=wrap;html=1;fontSize=12;fontFamily=Helvetica;fontColor=default;" parent="zeQAFEuLlaWNm11d6QBY-74" vertex="1">
          <mxGeometry y="26" width="200" height="104" as="geometry" />
        </mxCell>
        <mxCell id="zeQAFEuLlaWNm11d6QBY-76" value="" style="line;strokeWidth=1;fillColor=none;align=left;verticalAlign=middle;spacingTop=-1;spacingLeft=3;spacingRight=3;rotatable=0;labelPosition=right;points=[];portConstraint=eastwest;strokeColor=inherit;fontFamily=Helvetica;fontSize=12;fontColor=default;startSize=23;html=1;" parent="zeQAFEuLlaWNm11d6QBY-74" vertex="1">
          <mxGeometry y="130" width="200" height="8" as="geometry" />
        </mxCell>
        <mxCell id="zeQAFEuLlaWNm11d6QBY-77" value="Methods" style="text;strokeColor=none;fillColor=none;align=left;verticalAlign=top;spacingLeft=4;spacingRight=4;overflow=hidden;rotatable=0;points=[[0,0.5],[1,0.5]];portConstraint=eastwest;whiteSpace=wrap;html=1;fontSize=12;fontFamily=Helvetica;fontColor=default;" parent="zeQAFEuLlaWNm11d6QBY-74" vertex="1">
          <mxGeometry y="138" width="200" height="32" as="geometry" />
        </mxCell>
        <mxCell id="zeQAFEuLlaWNm11d6QBY-2" value="Main Menu" style="rounded=1;whiteSpace=wrap;html=1;absoluteArcSize=1;arcSize=18;strokeWidth=2;" parent="1" vertex="1">
          <mxGeometry x="267.5" y="177" width="120" height="37.5" as="geometry" />
        </mxCell>
        <mxCell id="zeQAFEuLlaWNm11d6QBY-78" value="Instructor" style="swimlane;fontStyle=1;align=center;verticalAlign=top;childLayout=stackLayout;horizontal=1;startSize=26;horizontalStack=0;resizeParent=1;resizeParentMax=0;resizeLast=0;collapsible=1;marginBottom=0;whiteSpace=wrap;html=1;strokeColor=default;fontFamily=Helvetica;fontSize=12;fontColor=default;fillColor=default;" parent="1" vertex="1">
          <mxGeometry x="234.5" y="-743.13" width="200" height="110" as="geometry">
            <mxRectangle x="600" y="80" width="200" height="30" as="alternateBounds" />
          </mxGeometry>
        </mxCell>
        <mxCell id="zeQAFEuLlaWNm11d6QBY-79" value="*Parent User&lt;br&gt;&amp;lt;vector&amp;gt; Classes" style="text;strokeColor=none;fillColor=none;align=left;verticalAlign=top;spacingLeft=4;spacingRight=4;overflow=hidden;rotatable=0;points=[[0,0.5],[1,0.5]];portConstraint=eastwest;whiteSpace=wrap;html=1;fontSize=12;fontFamily=Helvetica;fontColor=default;" parent="zeQAFEuLlaWNm11d6QBY-78" vertex="1">
          <mxGeometry y="26" width="200" height="44" as="geometry" />
        </mxCell>
        <mxCell id="zeQAFEuLlaWNm11d6QBY-80" value="" style="line;strokeWidth=1;fillColor=none;align=left;verticalAlign=middle;spacingTop=-1;spacingLeft=3;spacingRight=3;rotatable=0;labelPosition=right;points=[];portConstraint=eastwest;strokeColor=inherit;fontFamily=Helvetica;fontSize=12;fontColor=default;startSize=23;html=1;" parent="zeQAFEuLlaWNm11d6QBY-78" vertex="1">
          <mxGeometry y="70" width="200" height="8" as="geometry" />
        </mxCell>
        <mxCell id="zeQAFEuLlaWNm11d6QBY-81" value="Methods" style="text;strokeColor=none;fillColor=none;align=left;verticalAlign=top;spacingLeft=4;spacingRight=4;overflow=hidden;rotatable=0;points=[[0,0.5],[1,0.5]];portConstraint=eastwest;whiteSpace=wrap;html=1;fontSize=12;fontFamily=Helvetica;fontColor=default;" parent="zeQAFEuLlaWNm11d6QBY-78" vertex="1">
          <mxGeometry y="78" width="200" height="32" as="geometry" />
        </mxCell>
        <mxCell id="zeQAFEuLlaWNm11d6QBY-82" value="User" style="swimlane;fontStyle=1;align=center;verticalAlign=top;childLayout=stackLayout;horizontal=1;startSize=26;horizontalStack=0;resizeParent=1;resizeParentMax=0;resizeLast=0;collapsible=1;marginBottom=0;whiteSpace=wrap;html=1;strokeColor=default;fontFamily=Helvetica;fontSize=12;fontColor=default;fillColor=default;" parent="1" vertex="1">
          <mxGeometry x="234.5" y="-1006.8699999999999" width="200" height="130" as="geometry">
            <mxRectangle x="600" y="80" width="200" height="30" as="alternateBounds" />
          </mxGeometry>
        </mxCell>
        <mxCell id="zeQAFEuLlaWNm11d6QBY-83" value="Name&lt;br&gt;ID-Number&lt;br&gt;E-Mail&amp;nbsp;&lt;br&gt;Security Question / Answer" style="text;strokeColor=none;fillColor=none;align=left;verticalAlign=top;spacingLeft=4;spacingRight=4;overflow=hidden;rotatable=0;points=[[0,0.5],[1,0.5]];portConstraint=eastwest;whiteSpace=wrap;html=1;fontSize=12;fontFamily=Helvetica;fontColor=default;" parent="zeQAFEuLlaWNm11d6QBY-82" vertex="1">
          <mxGeometry y="26" width="200" height="64" as="geometry" />
        </mxCell>
        <mxCell id="zeQAFEuLlaWNm11d6QBY-84" value="" style="line;strokeWidth=1;fillColor=none;align=left;verticalAlign=middle;spacingTop=-1;spacingLeft=3;spacingRight=3;rotatable=0;labelPosition=right;points=[];portConstraint=eastwest;strokeColor=inherit;fontFamily=Helvetica;fontSize=12;fontColor=default;startSize=23;html=1;" parent="zeQAFEuLlaWNm11d6QBY-82" vertex="1">
          <mxGeometry y="90" width="200" height="8" as="geometry" />
        </mxCell>
        <mxCell id="zeQAFEuLlaWNm11d6QBY-85" value="Methods" style="text;strokeColor=none;fillColor=none;align=left;verticalAlign=top;spacingLeft=4;spacingRight=4;overflow=hidden;rotatable=0;points=[[0,0.5],[1,0.5]];portConstraint=eastwest;whiteSpace=wrap;html=1;fontSize=12;fontFamily=Helvetica;fontColor=default;" parent="zeQAFEuLlaWNm11d6QBY-82" vertex="1">
          <mxGeometry y="98" width="200" height="32" as="geometry" />
        </mxCell>
        <mxCell id="zeQAFEuLlaWNm11d6QBY-86" value="Administrator" style="swimlane;fontStyle=1;align=center;verticalAlign=top;childLayout=stackLayout;horizontal=1;startSize=26;horizontalStack=0;resizeParent=1;resizeParentMax=0;resizeLast=0;collapsible=1;marginBottom=0;whiteSpace=wrap;html=1;strokeColor=default;fontFamily=Helvetica;fontSize=12;fontColor=default;fillColor=default;" parent="1" vertex="1">
          <mxGeometry x="234.5" y="-860" width="200" height="100" as="geometry">
            <mxRectangle x="600" y="80" width="200" height="30" as="alternateBounds" />
          </mxGeometry>
        </mxCell>
        <mxCell id="zeQAFEuLlaWNm11d6QBY-87" value="*Parent User&lt;br&gt;Job Title" style="text;strokeColor=none;fillColor=none;align=left;verticalAlign=top;spacingLeft=4;spacingRight=4;overflow=hidden;rotatable=0;points=[[0,0.5],[1,0.5]];portConstraint=eastwest;whiteSpace=wrap;html=1;fontSize=12;fontFamily=Helvetica;fontColor=default;" parent="zeQAFEuLlaWNm11d6QBY-86" vertex="1">
          <mxGeometry y="26" width="200" height="34" as="geometry" />
        </mxCell>
        <mxCell id="zeQAFEuLlaWNm11d6QBY-88" value="" style="line;strokeWidth=1;fillColor=none;align=left;verticalAlign=middle;spacingTop=-1;spacingLeft=3;spacingRight=3;rotatable=0;labelPosition=right;points=[];portConstraint=eastwest;strokeColor=inherit;fontFamily=Helvetica;fontSize=12;fontColor=default;startSize=23;html=1;" parent="zeQAFEuLlaWNm11d6QBY-86" vertex="1">
          <mxGeometry y="60" width="200" height="8" as="geometry" />
        </mxCell>
        <mxCell id="zeQAFEuLlaWNm11d6QBY-89" value="Methods&lt;br&gt;" style="text;strokeColor=none;fillColor=none;align=left;verticalAlign=top;spacingLeft=4;spacingRight=4;overflow=hidden;rotatable=0;points=[[0,0.5],[1,0.5]];portConstraint=eastwest;whiteSpace=wrap;html=1;fontSize=12;fontFamily=Helvetica;fontColor=default;" parent="zeQAFEuLlaWNm11d6QBY-86" vertex="1">
          <mxGeometry y="68" width="200" height="32" as="geometry" />
        </mxCell>
        <mxCell id="zeQAFEuLlaWNm11d6QBY-94" value="Performance Tracker" style="swimlane;fontStyle=1;align=center;verticalAlign=top;childLayout=stackLayout;horizontal=1;startSize=26;horizontalStack=0;resizeParent=1;resizeParentMax=0;resizeLast=0;collapsible=1;marginBottom=0;whiteSpace=wrap;html=1;strokeColor=default;fontFamily=Helvetica;fontSize=12;fontColor=default;fillColor=default;" parent="1" vertex="1">
          <mxGeometry x="454.5" y="-180" width="200" height="140" as="geometry">
            <mxRectangle x="600" y="280" width="200" height="30" as="alternateBounds" />
          </mxGeometry>
        </mxCell>
        <mxCell id="zeQAFEuLlaWNm11d6QBY-95" value="Track Student Grades&lt;br&gt;Show them like data&lt;br&gt;Assignment weights&lt;br&gt;&quot;Grades&quot;" style="text;strokeColor=none;fillColor=none;align=left;verticalAlign=top;spacingLeft=4;spacingRight=4;overflow=hidden;rotatable=0;points=[[0,0.5],[1,0.5]];portConstraint=eastwest;whiteSpace=wrap;html=1;fontSize=12;fontFamily=Helvetica;fontColor=default;" parent="zeQAFEuLlaWNm11d6QBY-94" vertex="1">
          <mxGeometry y="26" width="200" height="74" as="geometry" />
        </mxCell>
        <mxCell id="zeQAFEuLlaWNm11d6QBY-96" value="" style="line;strokeWidth=1;fillColor=none;align=left;verticalAlign=middle;spacingTop=-1;spacingLeft=3;spacingRight=3;rotatable=0;labelPosition=right;points=[];portConstraint=eastwest;strokeColor=inherit;fontFamily=Helvetica;fontSize=12;fontColor=default;startSize=23;html=1;" parent="zeQAFEuLlaWNm11d6QBY-94" vertex="1">
          <mxGeometry y="100" width="200" height="8" as="geometry" />
        </mxCell>
        <mxCell id="zeQAFEuLlaWNm11d6QBY-97" value="Methods" style="text;strokeColor=none;fillColor=none;align=left;verticalAlign=top;spacingLeft=4;spacingRight=4;overflow=hidden;rotatable=0;points=[[0,0.5],[1,0.5]];portConstraint=eastwest;whiteSpace=wrap;html=1;fontSize=12;fontFamily=Helvetica;fontColor=default;" parent="zeQAFEuLlaWNm11d6QBY-94" vertex="1">
          <mxGeometry y="108" width="200" height="32" as="geometry" />
        </mxCell>
        <mxCell id="6Rt76ZgGS8mn4p0-sc7o-6" style="edgeStyle=orthogonalEdgeStyle;rounded=0;orthogonalLoop=1;jettySize=auto;html=1;exitX=0;exitY=0.5;exitDx=0;exitDy=0;exitPerimeter=0;entryX=1;entryY=0.5;entryDx=0;entryDy=0;entryPerimeter=0;" parent="1" source="6Rt76ZgGS8mn4p0-sc7o-1" target="6Rt76ZgGS8mn4p0-sc7o-4" edge="1">
          <mxGeometry relative="1" as="geometry" />
        </mxCell>
        <mxCell id="6Rt76ZgGS8mn4p0-sc7o-24" style="edgeStyle=orthogonalEdgeStyle;rounded=0;orthogonalLoop=1;jettySize=auto;html=1;exitX=1;exitY=0.5;exitDx=0;exitDy=0;exitPerimeter=0;entryX=0;entryY=0.5;entryDx=0;entryDy=0;" parent="1" source="6Rt76ZgGS8mn4p0-sc7o-1" target="6Rt76ZgGS8mn4p0-sc7o-16" edge="1">
          <mxGeometry relative="1" as="geometry" />
        </mxCell>
        <mxCell id="6Rt76ZgGS8mn4p0-sc7o-32" style="edgeStyle=orthogonalEdgeStyle;rounded=0;orthogonalLoop=1;jettySize=auto;html=1;exitX=0.5;exitY=1;exitDx=0;exitDy=0;exitPerimeter=0;" parent="1" source="6Rt76ZgGS8mn4p0-sc7o-1" target="6Rt76ZgGS8mn4p0-sc7o-27" edge="1">
          <mxGeometry relative="1" as="geometry" />
        </mxCell>
        <mxCell id="6Rt76ZgGS8mn4p0-sc7o-1" value="" style="strokeWidth=2;html=1;shape=mxgraph.flowchart.decision;whiteSpace=wrap;" parent="1" vertex="1">
          <mxGeometry x="275" y="340.13" width="100" height="100" as="geometry" />
        </mxCell>
        <mxCell id="6Rt76ZgGS8mn4p0-sc7o-4" value="Exit&lt;br&gt;Program" style="strokeWidth=2;html=1;shape=mxgraph.flowchart.terminator;whiteSpace=wrap;" parent="1" vertex="1">
          <mxGeometry x="85.5" y="365.76" width="100" height="48.75" as="geometry" />
        </mxCell>
        <mxCell id="6Rt76ZgGS8mn4p0-sc7o-7" value="3" style="text;html=1;strokeColor=none;fillColor=none;align=center;verticalAlign=middle;whiteSpace=wrap;rounded=0;" parent="1" vertex="1">
          <mxGeometry x="277.5" y="380.13" width="20" height="20" as="geometry" />
        </mxCell>
        <mxCell id="6Rt76ZgGS8mn4p0-sc7o-8" value="2" style="text;html=1;strokeColor=none;fillColor=none;align=center;verticalAlign=middle;whiteSpace=wrap;rounded=0;" parent="1" vertex="1">
          <mxGeometry x="347.5" y="380.13" width="20" height="20" as="geometry" />
        </mxCell>
        <mxCell id="6Rt76ZgGS8mn4p0-sc7o-9" value="1" style="text;html=1;strokeColor=none;fillColor=none;align=center;verticalAlign=middle;whiteSpace=wrap;rounded=0;" parent="1" vertex="1">
          <mxGeometry x="314.5" y="414.51" width="20" height="20" as="geometry" />
        </mxCell>
        <mxCell id="6Rt76ZgGS8mn4p0-sc7o-26" style="edgeStyle=orthogonalEdgeStyle;rounded=0;orthogonalLoop=1;jettySize=auto;html=1;exitX=1;exitY=0.5;exitDx=0;exitDy=0;entryX=0;entryY=0.25;entryDx=0;entryDy=0;" parent="1" source="6Rt76ZgGS8mn4p0-sc7o-16" target="6Rt76ZgGS8mn4p0-sc7o-25" edge="1">
          <mxGeometry relative="1" as="geometry" />
        </mxCell>
        <mxCell id="6Rt76ZgGS8mn4p0-sc7o-16" value="Register &lt;br&gt;New User Menu" style="rounded=1;whiteSpace=wrap;html=1;absoluteArcSize=1;arcSize=18;strokeWidth=2;" parent="1" vertex="1">
          <mxGeometry x="462.5" y="371.38" width="110" height="37.5" as="geometry" />
        </mxCell>
        <mxCell id="6Rt76ZgGS8mn4p0-sc7o-25" value="Register&amp;nbsp;&lt;br&gt;New User" style="shape=process;whiteSpace=wrap;html=1;backgroundOutline=1;size=0.08333333333333333;" parent="1" vertex="1">
          <mxGeometry x="674.5" y="373.38" width="120" height="64.62" as="geometry" />
        </mxCell>
        <mxCell id="6Rt76ZgGS8mn4p0-sc7o-36" style="edgeStyle=orthogonalEdgeStyle;rounded=0;orthogonalLoop=1;jettySize=auto;html=1;exitX=0.5;exitY=1;exitDx=0;exitDy=0;entryX=0.5;entryY=0;entryDx=0;entryDy=0;entryPerimeter=0;" parent="1" source="6Rt76ZgGS8mn4p0-sc7o-27" target="6Rt76ZgGS8mn4p0-sc7o-35" edge="1">
          <mxGeometry relative="1" as="geometry" />
        </mxCell>
        <mxCell id="6Rt76ZgGS8mn4p0-sc7o-27" value="Username&lt;br&gt;&amp;amp;&lt;br&gt;Password" style="verticalLabelPosition=middle;verticalAlign=middle;html=1;shape=trapezoid;perimeter=trapezoidPerimeter;whiteSpace=wrap;size=0.23;arcSize=10;flipV=1;labelPosition=center;align=center;" parent="1" vertex="1">
          <mxGeometry x="274.5" y="469" width="100" height="60" as="geometry" />
        </mxCell>
        <mxCell id="6Rt76ZgGS8mn4p0-sc7o-38" style="edgeStyle=orthogonalEdgeStyle;rounded=0;orthogonalLoop=1;jettySize=auto;html=1;exitX=0;exitY=0.5;exitDx=0;exitDy=0;exitPerimeter=0;entryX=1;entryY=0.5;entryDx=0;entryDy=0;" parent="1" source="6Rt76ZgGS8mn4p0-sc7o-35" target="6Rt76ZgGS8mn4p0-sc7o-37" edge="1">
          <mxGeometry relative="1" as="geometry" />
        </mxCell>
        <mxCell id="6Rt76ZgGS8mn4p0-sc7o-45" style="edgeStyle=orthogonalEdgeStyle;rounded=0;orthogonalLoop=1;jettySize=auto;html=1;exitX=1;exitY=0.5;exitDx=0;exitDy=0;exitPerimeter=0;entryX=0;entryY=0.5;entryDx=0;entryDy=0;" parent="1" source="6Rt76ZgGS8mn4p0-sc7o-35" target="6Rt76ZgGS8mn4p0-sc7o-42" edge="1">
          <mxGeometry relative="1" as="geometry">
            <mxPoint x="434.5" y="604" as="targetPoint" />
          </mxGeometry>
        </mxCell>
        <mxCell id="6Rt76ZgGS8mn4p0-sc7o-51" style="edgeStyle=orthogonalEdgeStyle;rounded=0;orthogonalLoop=1;jettySize=auto;html=1;exitX=0.5;exitY=1;exitDx=0;exitDy=0;exitPerimeter=0;entryX=0.5;entryY=0;entryDx=0;entryDy=0;" parent="1" source="6Rt76ZgGS8mn4p0-sc7o-35" edge="1">
          <mxGeometry relative="1" as="geometry">
            <mxPoint x="325" y="659" as="targetPoint" />
          </mxGeometry>
        </mxCell>
        <mxCell id="6Rt76ZgGS8mn4p0-sc7o-35" value="" style="verticalLabelPosition=bottom;verticalAlign=top;html=1;shape=mxgraph.flowchart.summing_function;" parent="1" vertex="1">
          <mxGeometry x="303.5" y="582.5" width="42" height="42" as="geometry" />
        </mxCell>
        <mxCell id="6Rt76ZgGS8mn4p0-sc7o-39" style="edgeStyle=orthogonalEdgeStyle;rounded=0;orthogonalLoop=1;jettySize=auto;html=1;exitX=0.5;exitY=0;exitDx=0;exitDy=0;" parent="1" source="6Rt76ZgGS8mn4p0-sc7o-37" target="6Rt76ZgGS8mn4p0-sc7o-27" edge="1">
          <mxGeometry relative="1" as="geometry">
            <mxPoint x="164.5" y="489" as="targetPoint" />
            <Array as="points">
              <mxPoint x="135.5" y="499" />
            </Array>
          </mxGeometry>
        </mxCell>
        <mxCell id="6Rt76ZgGS8mn4p0-sc7o-37" value="Incorrect Login&lt;br&gt;Try Again" style="rounded=1;whiteSpace=wrap;html=1;absoluteArcSize=1;arcSize=14;strokeWidth=2;" parent="1" vertex="1">
          <mxGeometry x="77" y="581.5" width="117" height="44" as="geometry" />
        </mxCell>
        <mxCell id="6Rt76ZgGS8mn4p0-sc7o-58" style="edgeStyle=orthogonalEdgeStyle;rounded=0;orthogonalLoop=1;jettySize=auto;html=1;exitX=1;exitY=0.5;exitDx=0;exitDy=0;entryX=0;entryY=0.25;entryDx=0;entryDy=0;" parent="1" source="6Rt76ZgGS8mn4p0-sc7o-42" target="6Rt76ZgGS8mn4p0-sc7o-44" edge="1">
          <mxGeometry relative="1" as="geometry" />
        </mxCell>
        <mxCell id="6Rt76ZgGS8mn4p0-sc7o-42" value="Forgot Password" style="rounded=1;whiteSpace=wrap;html=1;absoluteArcSize=1;arcSize=14;strokeWidth=2;" parent="1" vertex="1">
          <mxGeometry x="454" y="586.5" width="127" height="34" as="geometry" />
        </mxCell>
        <mxCell id="6Rt76ZgGS8mn4p0-sc7o-43" value="Failure" style="text;html=1;strokeColor=none;fillColor=none;align=center;verticalAlign=middle;whiteSpace=wrap;rounded=0;" parent="1" vertex="1">
          <mxGeometry x="234.5" y="579" width="60" height="30" as="geometry" />
        </mxCell>
        <mxCell id="6Rt76ZgGS8mn4p0-sc7o-44" value="Forgot Password" style="shape=process;whiteSpace=wrap;html=1;backgroundOutline=1;size=0.08333333333333333;" parent="1" vertex="1">
          <mxGeometry x="674.5" y="588.5" width="120" height="60" as="geometry" />
        </mxCell>
        <mxCell id="6Rt76ZgGS8mn4p0-sc7o-47" value="Alternate" style="text;html=1;strokeColor=none;fillColor=none;align=center;verticalAlign=middle;whiteSpace=wrap;rounded=0;" parent="1" vertex="1">
          <mxGeometry x="364.5" y="579" width="60" height="30" as="geometry" />
        </mxCell>
        <mxCell id="6Rt76ZgGS8mn4p0-sc7o-48" value="&lt;b&gt;&lt;font style=&quot;font-size: 22px;&quot;&gt;Classroom Management Flowchart&lt;/font&gt;&lt;/b&gt;" style="text;html=1;strokeColor=none;fillColor=none;align=center;verticalAlign=middle;whiteSpace=wrap;rounded=0;fontSize=12;fontFamily=Helvetica;fontColor=default;" parent="1" vertex="1">
          <mxGeometry x="480" y="60" width="280" height="30" as="geometry" />
        </mxCell>
        <mxCell id="6Rt76ZgGS8mn4p0-sc7o-59" value="&lt;span style=&quot;font-size: 22px;&quot;&gt;&lt;b&gt;1&lt;/b&gt;&lt;/span&gt;" style="text;html=1;strokeColor=none;fillColor=none;align=center;verticalAlign=middle;whiteSpace=wrap;rounded=0;fontSize=12;fontFamily=Helvetica;fontColor=default;" parent="1" vertex="1">
          <mxGeometry x="40" y="50" width="60" height="30" as="geometry" />
        </mxCell>
        <mxCell id="6Rt76ZgGS8mn4p0-sc7o-60" value="Administrator Menu" style="rounded=1;whiteSpace=wrap;html=1;absoluteArcSize=1;arcSize=14;strokeWidth=2;" parent="1" vertex="1">
          <mxGeometry x="77" y="752" width="127" height="34" as="geometry" />
        </mxCell>
        <mxCell id="6Rt76ZgGS8mn4p0-sc7o-62" value="Instructor Menu" style="rounded=1;whiteSpace=wrap;html=1;absoluteArcSize=1;arcSize=14;strokeWidth=2;" parent="1" vertex="1">
          <mxGeometry x="261.5" y="752" width="127" height="34" as="geometry" />
        </mxCell>
        <mxCell id="6Rt76ZgGS8mn4p0-sc7o-63" value="Student Menu" style="rounded=1;whiteSpace=wrap;html=1;absoluteArcSize=1;arcSize=14;strokeWidth=2;" parent="1" vertex="1">
          <mxGeometry x="454" y="752" width="127" height="34" as="geometry" />
        </mxCell>
        <mxCell id="6Rt76ZgGS8mn4p0-sc7o-70" style="edgeStyle=orthogonalEdgeStyle;rounded=0;orthogonalLoop=1;jettySize=auto;html=1;exitX=0.5;exitY=1;exitDx=0;exitDy=0;exitPerimeter=0;entryX=0.5;entryY=0;entryDx=0;entryDy=0;" parent="1" source="6Rt76ZgGS8mn4p0-sc7o-68" target="6Rt76ZgGS8mn4p0-sc7o-62" edge="1">
          <mxGeometry relative="1" as="geometry" />
        </mxCell>
        <mxCell id="6Rt76ZgGS8mn4p0-sc7o-71" style="edgeStyle=orthogonalEdgeStyle;rounded=0;orthogonalLoop=1;jettySize=auto;html=1;exitX=0;exitY=0.5;exitDx=0;exitDy=0;exitPerimeter=0;" parent="1" source="6Rt76ZgGS8mn4p0-sc7o-68" edge="1">
          <mxGeometry relative="1" as="geometry">
            <mxPoint x="143.5" y="749" as="targetPoint" />
            <Array as="points">
              <mxPoint x="143.5" y="684" />
            </Array>
          </mxGeometry>
        </mxCell>
        <mxCell id="6Rt76ZgGS8mn4p0-sc7o-72" style="edgeStyle=orthogonalEdgeStyle;rounded=0;orthogonalLoop=1;jettySize=auto;html=1;exitX=1;exitY=0.5;exitDx=0;exitDy=0;exitPerimeter=0;entryX=0.5;entryY=0;entryDx=0;entryDy=0;" parent="1" source="6Rt76ZgGS8mn4p0-sc7o-68" target="6Rt76ZgGS8mn4p0-sc7o-63" edge="1">
          <mxGeometry relative="1" as="geometry">
            <mxPoint x="523.5" y="684" as="targetPoint" />
          </mxGeometry>
        </mxCell>
        <mxCell id="6Rt76ZgGS8mn4p0-sc7o-68" value="&lt;font style=&quot;font-size: 12px;&quot;&gt;Success&lt;/font&gt;" style="strokeWidth=2;html=1;shape=mxgraph.flowchart.decision;whiteSpace=wrap;" parent="1" vertex="1">
          <mxGeometry x="289.75" y="659" width="69.5" height="50" as="geometry" />
        </mxCell>
        <mxCell id="6Rt76ZgGS8mn4p0-sc7o-85" value="Student Menu&lt;br&gt;" style="shape=process;whiteSpace=wrap;html=1;backgroundOutline=1;size=0.08333333333333333;" parent="1" vertex="1">
          <mxGeometry x="457.5" y="929" width="120" height="60" as="geometry" />
        </mxCell>
        <mxCell id="6Rt76ZgGS8mn4p0-sc7o-92" value="Instructor Menu&lt;br&gt;" style="shape=process;whiteSpace=wrap;html=1;backgroundOutline=1;size=0.08333333333333333;" parent="1" vertex="1">
          <mxGeometry x="265" y="929" width="120" height="60" as="geometry" />
        </mxCell>
        <mxCell id="6Rt76ZgGS8mn4p0-sc7o-93" value="Administrator Menu" style="shape=process;whiteSpace=wrap;html=1;backgroundOutline=1;size=0.08333333333333333;" parent="1" vertex="1">
          <mxGeometry x="80.5" y="929" width="120" height="60" as="geometry" />
        </mxCell>
        <mxCell id="6Rt76ZgGS8mn4p0-sc7o-164" value="&lt;span style=&quot;font-size: 22px;&quot;&gt;&lt;b&gt;2&lt;/b&gt;&lt;/span&gt;" style="text;html=1;strokeColor=none;fillColor=none;align=center;verticalAlign=middle;whiteSpace=wrap;rounded=0;fontSize=12;fontFamily=Helvetica;fontColor=default;" parent="1" vertex="1">
          <mxGeometry x="880" y="50" width="60" height="30" as="geometry" />
        </mxCell>
        <mxCell id="6Rt76ZgGS8mn4p0-sc7o-165" value="&lt;b&gt;&lt;font style=&quot;font-size: 22px;&quot;&gt;Classroom Management Flowchart&lt;/font&gt;&lt;/b&gt;" style="text;html=1;strokeColor=none;fillColor=none;align=center;verticalAlign=middle;whiteSpace=wrap;rounded=0;fontSize=12;fontFamily=Helvetica;fontColor=default;" parent="1" vertex="1">
          <mxGeometry x="1320" y="59.99999999999999" width="280" height="30" as="geometry" />
        </mxCell>
        <mxCell id="6Rt76ZgGS8mn4p0-sc7o-166" value="&lt;span style=&quot;font-size: 12px;&quot;&gt;&lt;b style=&quot;font-size: 12px;&quot;&gt;2&lt;/b&gt;&lt;/span&gt;" style="text;html=1;strokeColor=none;fillColor=none;align=center;verticalAlign=middle;whiteSpace=wrap;rounded=0;fontSize=12;fontFamily=Helvetica;fontColor=default;" parent="1" vertex="1">
          <mxGeometry x="749.5" y="416.49" width="50" height="27.51" as="geometry" />
        </mxCell>
        <mxCell id="6Rt76ZgGS8mn4p0-sc7o-167" value="&lt;span style=&quot;font-size: 12px;&quot;&gt;&lt;b style=&quot;font-size: 12px;&quot;&gt;2&lt;/b&gt;&lt;/span&gt;" style="text;html=1;strokeColor=none;fillColor=none;align=center;verticalAlign=middle;whiteSpace=wrap;rounded=0;fontSize=12;fontFamily=Helvetica;fontColor=default;" parent="1" vertex="1">
          <mxGeometry x="749.5" y="626.99" width="50" height="27.51" as="geometry" />
        </mxCell>
        <mxCell id="6Rt76ZgGS8mn4p0-sc7o-168" value="Register&lt;br&gt;New User" style="strokeWidth=2;html=1;shape=mxgraph.flowchart.terminator;whiteSpace=wrap;" parent="1" vertex="1">
          <mxGeometry x="1104.5" y="122" width="111" height="48.75" as="geometry" />
        </mxCell>
        <mxCell id="6Rt76ZgGS8mn4p0-sc7o-241" value="" style="edgeStyle=orthogonalEdgeStyle;rounded=0;orthogonalLoop=1;jettySize=auto;html=1;" parent="1" source="6Rt76ZgGS8mn4p0-sc7o-169" target="6Rt76ZgGS8mn4p0-sc7o-240" edge="1">
          <mxGeometry relative="1" as="geometry" />
        </mxCell>
        <mxCell id="6Rt76ZgGS8mn4p0-sc7o-169" value="Forgot Password" style="strokeWidth=2;html=1;shape=mxgraph.flowchart.terminator;whiteSpace=wrap;" parent="1" vertex="1">
          <mxGeometry x="1002" y="703.25" width="111" height="48.75" as="geometry" />
        </mxCell>
        <mxCell id="6Rt76ZgGS8mn4p0-sc7o-175" style="edgeStyle=orthogonalEdgeStyle;rounded=0;orthogonalLoop=1;jettySize=auto;html=1;exitX=0;exitY=0.5;exitDx=0;exitDy=0;exitPerimeter=0;entryX=1;entryY=0.5;entryDx=0;entryDy=0;" parent="1" source="6Rt76ZgGS8mn4p0-sc7o-170" target="6Rt76ZgGS8mn4p0-sc7o-173" edge="1">
          <mxGeometry relative="1" as="geometry" />
        </mxCell>
        <mxCell id="6Rt76ZgGS8mn4p0-sc7o-185" style="edgeStyle=orthogonalEdgeStyle;rounded=0;orthogonalLoop=1;jettySize=auto;html=1;exitX=1;exitY=0.5;exitDx=0;exitDy=0;exitPerimeter=0;entryX=0;entryY=0.5;entryDx=0;entryDy=0;" parent="1" source="6Rt76ZgGS8mn4p0-sc7o-170" target="6Rt76ZgGS8mn4p0-sc7o-178" edge="1">
          <mxGeometry relative="1" as="geometry" />
        </mxCell>
        <mxCell id="6Rt76ZgGS8mn4p0-sc7o-170" value="" style="strokeWidth=2;html=1;shape=mxgraph.flowchart.decision;whiteSpace=wrap;" parent="1" vertex="1">
          <mxGeometry x="1110" y="273.85" width="100" height="60" as="geometry" />
        </mxCell>
        <mxCell id="6Rt76ZgGS8mn4p0-sc7o-173" value="Main Menu&lt;br&gt;" style="shape=process;whiteSpace=wrap;html=1;backgroundOutline=1;size=0.08333333333333333;" parent="1" vertex="1">
          <mxGeometry x="910" y="272.85" width="120" height="62.31" as="geometry" />
        </mxCell>
        <mxCell id="6Rt76ZgGS8mn4p0-sc7o-176" value="&lt;span style=&quot;font-size: 12px;&quot;&gt;&lt;b style=&quot;font-size: 12px;&quot;&gt;1&lt;/b&gt;&lt;/span&gt;" style="text;html=1;strokeColor=none;fillColor=none;align=center;verticalAlign=middle;whiteSpace=wrap;rounded=0;fontSize=12;fontFamily=Helvetica;fontColor=default;" parent="1" vertex="1">
          <mxGeometry x="983" y="311" width="50" height="27.51" as="geometry" />
        </mxCell>
        <mxCell id="6Rt76ZgGS8mn4p0-sc7o-178" value="Register &lt;br&gt;New Student" style="rounded=1;whiteSpace=wrap;html=1;absoluteArcSize=1;arcSize=18;strokeWidth=2;" parent="1" vertex="1">
          <mxGeometry x="1345" y="285.26" width="115" height="37.5" as="geometry" />
        </mxCell>
        <mxCell id="6Rt76ZgGS8mn4p0-sc7o-180" value="1" style="text;html=1;strokeColor=none;fillColor=none;align=center;verticalAlign=middle;whiteSpace=wrap;rounded=0;" parent="1" vertex="1">
          <mxGeometry x="1182" y="294.01" width="20" height="20" as="geometry" />
        </mxCell>
        <mxCell id="6Rt76ZgGS8mn4p0-sc7o-183" value="2" style="text;html=1;strokeColor=none;fillColor=none;align=center;verticalAlign=middle;whiteSpace=wrap;rounded=0;" parent="1" vertex="1">
          <mxGeometry x="1117" y="294" width="20" height="20" as="geometry" />
        </mxCell>
        <mxCell id="6Rt76ZgGS8mn4p0-sc7o-213" style="edgeStyle=orthogonalEdgeStyle;rounded=0;orthogonalLoop=1;jettySize=auto;html=1;exitX=0;exitY=0.5;exitDx=0;exitDy=0;entryX=-0.005;entryY=0.144;entryDx=0;entryDy=0;entryPerimeter=0;" parent="1" source="6Rt76ZgGS8mn4p0-sc7o-196" target="6Rt76ZgGS8mn4p0-sc7o-198" edge="1">
          <mxGeometry relative="1" as="geometry">
            <mxPoint x="1260" y="354" as="targetPoint" />
            <Array as="points">
              <mxPoint x="1345" y="444" />
              <mxPoint x="1344" y="444" />
              <mxPoint x="1344" y="457" />
              <mxPoint x="1260" y="457" />
              <mxPoint x="1260" y="327" />
            </Array>
          </mxGeometry>
        </mxCell>
        <mxCell id="6Rt76ZgGS8mn4p0-sc7o-215" value="" style="edgeStyle=orthogonalEdgeStyle;rounded=0;orthogonalLoop=1;jettySize=auto;html=1;" parent="1" source="6Rt76ZgGS8mn4p0-sc7o-196" target="6Rt76ZgGS8mn4p0-sc7o-210" edge="1">
          <mxGeometry relative="1" as="geometry" />
        </mxCell>
        <mxCell id="6Rt76ZgGS8mn4p0-sc7o-196" value="Regex Check" style="rounded=1;whiteSpace=wrap;html=1;absoluteArcSize=1;arcSize=18;strokeWidth=2;" parent="1" vertex="1">
          <mxGeometry x="1345" y="438" width="115" height="37.5" as="geometry" />
        </mxCell>
        <mxCell id="6Rt76ZgGS8mn4p0-sc7o-230" value="" style="edgeStyle=orthogonalEdgeStyle;rounded=0;orthogonalLoop=1;jettySize=auto;html=1;" parent="1" source="6Rt76ZgGS8mn4p0-sc7o-210" target="6Rt76ZgGS8mn4p0-sc7o-229" edge="1">
          <mxGeometry relative="1" as="geometry" />
        </mxCell>
        <mxCell id="6Rt76ZgGS8mn4p0-sc7o-210" value="Student&lt;br&gt;Constructor&lt;br&gt;Add to Students List" style="rounded=1;whiteSpace=wrap;html=1;absoluteArcSize=1;arcSize=18;strokeWidth=2;" parent="1" vertex="1">
          <mxGeometry x="1345" y="513" width="115" height="50" as="geometry" />
        </mxCell>
        <mxCell id="6Rt76ZgGS8mn4p0-sc7o-211" value="" style="strokeWidth=2;html=1;shape=mxgraph.flowchart.annotation_2;align=left;labelPosition=right;pointerEvents=1;rotation=-180;" parent="1" vertex="1">
          <mxGeometry x="1472.5" y="513.12" width="10" height="49.12" as="geometry" />
        </mxCell>
        <mxCell id="6Rt76ZgGS8mn4p0-sc7o-212" value="Create Student ID" style="text;html=1;strokeColor=none;fillColor=none;align=center;verticalAlign=middle;whiteSpace=wrap;rounded=0;" parent="1" vertex="1">
          <mxGeometry x="1477" y="521.5600000000001" width="116.5" height="30" as="geometry" />
        </mxCell>
        <mxCell id="6Rt76ZgGS8mn4p0-sc7o-218" value="Failure" style="text;html=1;strokeColor=none;fillColor=none;align=center;verticalAlign=middle;whiteSpace=wrap;rounded=0;" parent="1" vertex="1">
          <mxGeometry x="1281.5" y="434.51" width="40" height="20" as="geometry" />
        </mxCell>
        <mxCell id="6Rt76ZgGS8mn4p0-sc7o-227" value="Main Menu&lt;br&gt;" style="shape=process;whiteSpace=wrap;html=1;backgroundOutline=1;size=0.08333333333333333;" parent="1" vertex="1">
          <mxGeometry x="910" y="506.40000000000003" width="120" height="62.31" as="geometry" />
        </mxCell>
        <mxCell id="6Rt76ZgGS8mn4p0-sc7o-228" value="&lt;span style=&quot;font-size: 12px;&quot;&gt;&lt;b style=&quot;font-size: 12px;&quot;&gt;1&lt;/b&gt;&lt;/span&gt;" style="text;html=1;strokeColor=none;fillColor=none;align=center;verticalAlign=middle;whiteSpace=wrap;rounded=0;fontSize=12;fontFamily=Helvetica;fontColor=default;" parent="1" vertex="1">
          <mxGeometry x="983" y="544.1999999999999" width="50" height="27.51" as="geometry" />
        </mxCell>
        <mxCell id="6Rt76ZgGS8mn4p0-sc7o-236" style="edgeStyle=orthogonalEdgeStyle;rounded=0;orthogonalLoop=1;jettySize=auto;html=1;exitX=0;exitY=0.5;exitDx=0;exitDy=0;entryX=1;entryY=0.5;entryDx=0;entryDy=0;" parent="1" source="6Rt76ZgGS8mn4p0-sc7o-229" target="6Rt76ZgGS8mn4p0-sc7o-227" edge="1">
          <mxGeometry relative="1" as="geometry" />
        </mxCell>
        <mxCell id="xCRmx5UfHdt6KgPNWkzm-49" value="" style="edgeStyle=orthogonalEdgeStyle;rounded=0;orthogonalLoop=1;jettySize=auto;html=1;" edge="1" parent="1" source="6Rt76ZgGS8mn4p0-sc7o-229" target="6Rt76ZgGS8mn4p0-sc7o-234">
          <mxGeometry relative="1" as="geometry" />
        </mxCell>
        <mxCell id="6Rt76ZgGS8mn4p0-sc7o-229" value="Next Menu" style="rounded=1;whiteSpace=wrap;html=1;absoluteArcSize=1;arcSize=18;strokeWidth=2;" parent="1" vertex="1">
          <mxGeometry x="1102.5" y="518.8100000000001" width="115" height="37.5" as="geometry" />
        </mxCell>
        <mxCell id="6Rt76ZgGS8mn4p0-sc7o-234" value="Register for Classes&lt;br&gt;Process" style="shape=process;whiteSpace=wrap;html=1;backgroundOutline=1;size=0.08333333333333333;" parent="1" vertex="1">
          <mxGeometry x="1100" y="382.1300000000001" width="120" height="62.31" as="geometry" />
        </mxCell>
        <mxCell id="6Rt76ZgGS8mn4p0-sc7o-237" value="" style="shape=link;html=1;rounded=0;" parent="1" edge="1">
          <mxGeometry width="100" relative="1" as="geometry">
            <mxPoint x="910" y="659" as="sourcePoint" />
            <mxPoint x="1600" y="659" as="targetPoint" />
          </mxGeometry>
        </mxCell>
        <mxCell id="6Rt76ZgGS8mn4p0-sc7o-243" value="" style="edgeStyle=orthogonalEdgeStyle;rounded=0;orthogonalLoop=1;jettySize=auto;html=1;" parent="1" source="6Rt76ZgGS8mn4p0-sc7o-240" target="6Rt76ZgGS8mn4p0-sc7o-242" edge="1">
          <mxGeometry relative="1" as="geometry" />
        </mxCell>
        <mxCell id="6Rt76ZgGS8mn4p0-sc7o-240" value="Email&lt;br&gt;Address" style="verticalLabelPosition=middle;verticalAlign=middle;html=1;shape=trapezoid;perimeter=trapezoidPerimeter;whiteSpace=wrap;size=0.23;arcSize=10;flipV=1;labelPosition=center;align=center;" parent="1" vertex="1">
          <mxGeometry x="1007.5" y="812.5" width="100" height="61" as="geometry" />
        </mxCell>
        <mxCell id="6Rt76ZgGS8mn4p0-sc7o-245" style="edgeStyle=orthogonalEdgeStyle;rounded=0;orthogonalLoop=1;jettySize=auto;html=1;exitX=0;exitY=0.5;exitDx=0;exitDy=0;entryX=0.108;entryY=0.53;entryDx=0;entryDy=0;entryPerimeter=0;" parent="1" source="6Rt76ZgGS8mn4p0-sc7o-242" target="6Rt76ZgGS8mn4p0-sc7o-240" edge="1">
          <mxGeometry relative="1" as="geometry">
            <mxPoint x="910" y="814.25" as="targetPoint" />
            <Array as="points">
              <mxPoint x="1000" y="940" />
              <mxPoint x="940" y="940" />
              <mxPoint x="940" y="841" />
              <mxPoint x="1010" y="841" />
            </Array>
          </mxGeometry>
        </mxCell>
        <mxCell id="6Rt76ZgGS8mn4p0-sc7o-251" value="" style="edgeStyle=orthogonalEdgeStyle;rounded=0;orthogonalLoop=1;jettySize=auto;html=1;" parent="1" source="6Rt76ZgGS8mn4p0-sc7o-242" target="6Rt76ZgGS8mn4p0-sc7o-250" edge="1">
          <mxGeometry relative="1" as="geometry" />
        </mxCell>
        <mxCell id="6Rt76ZgGS8mn4p0-sc7o-242" value="Regex Check" style="rounded=1;whiteSpace=wrap;html=1;absoluteArcSize=1;arcSize=18;strokeWidth=2;" parent="1" vertex="1">
          <mxGeometry x="1000" y="926.75" width="115" height="37.5" as="geometry" />
        </mxCell>
        <mxCell id="6Rt76ZgGS8mn4p0-sc7o-247" value="Failure" style="text;html=1;strokeColor=none;fillColor=none;align=center;verticalAlign=middle;whiteSpace=wrap;rounded=0;" parent="1" vertex="1">
          <mxGeometry x="950" y="921" width="40" height="20" as="geometry" />
        </mxCell>
        <mxCell id="6Rt76ZgGS8mn4p0-sc7o-289" value="" style="edgeStyle=orthogonalEdgeStyle;rounded=0;orthogonalLoop=1;jettySize=auto;html=1;" parent="1" source="6Rt76ZgGS8mn4p0-sc7o-250" target="6Rt76ZgGS8mn4p0-sc7o-240" edge="1">
          <mxGeometry relative="1" as="geometry">
            <Array as="points">
              <mxPoint x="1150" y="843" />
              <mxPoint x="1150" y="843" />
            </Array>
          </mxGeometry>
        </mxCell>
        <mxCell id="6Rt76ZgGS8mn4p0-sc7o-291" style="edgeStyle=orthogonalEdgeStyle;rounded=0;orthogonalLoop=1;jettySize=auto;html=1;exitX=0.5;exitY=0;exitDx=0;exitDy=0;entryX=0;entryY=0.5;entryDx=0;entryDy=0;" parent="1" source="6Rt76ZgGS8mn4p0-sc7o-250" target="6Rt76ZgGS8mn4p0-sc7o-253" edge="1">
          <mxGeometry relative="1" as="geometry" />
        </mxCell>
        <mxCell id="6Rt76ZgGS8mn4p0-sc7o-250" value="Confirm Account Exists" style="rounded=1;whiteSpace=wrap;html=1;absoluteArcSize=1;arcSize=18;strokeWidth=2;" parent="1" vertex="1">
          <mxGeometry x="1170" y="824.25" width="115" height="37.5" as="geometry" />
        </mxCell>
        <mxCell id="6Rt76ZgGS8mn4p0-sc7o-258" value="" style="edgeStyle=orthogonalEdgeStyle;rounded=0;orthogonalLoop=1;jettySize=auto;html=1;" parent="1" source="6Rt76ZgGS8mn4p0-sc7o-253" target="6Rt76ZgGS8mn4p0-sc7o-257" edge="1">
          <mxGeometry relative="1" as="geometry">
            <Array as="points">
              <mxPoint x="1362" y="794.25" />
              <mxPoint x="1362" y="794.25" />
            </Array>
          </mxGeometry>
        </mxCell>
        <mxCell id="6Rt76ZgGS8mn4p0-sc7o-253" value="Display Security &lt;br&gt;Question" style="rounded=1;whiteSpace=wrap;html=1;absoluteArcSize=1;arcSize=18;strokeWidth=2;" parent="1" vertex="1">
          <mxGeometry x="1305" y="745.75" width="115" height="37.5" as="geometry" />
        </mxCell>
        <mxCell id="6Rt76ZgGS8mn4p0-sc7o-260" style="edgeStyle=orthogonalEdgeStyle;rounded=0;orthogonalLoop=1;jettySize=auto;html=1;exitX=1;exitY=0.5;exitDx=0;exitDy=0;entryX=1;entryY=0.5;entryDx=0;entryDy=0;" parent="1" source="6Rt76ZgGS8mn4p0-sc7o-257" target="6Rt76ZgGS8mn4p0-sc7o-253" edge="1">
          <mxGeometry relative="1" as="geometry">
            <mxPoint x="1480" y="754.25" as="targetPoint" />
            <Array as="points">
              <mxPoint x="1490" y="840.25" />
              <mxPoint x="1490" y="764.25" />
            </Array>
          </mxGeometry>
        </mxCell>
        <mxCell id="6Rt76ZgGS8mn4p0-sc7o-283" value="" style="edgeStyle=orthogonalEdgeStyle;rounded=0;orthogonalLoop=1;jettySize=auto;html=1;" parent="1" source="6Rt76ZgGS8mn4p0-sc7o-257" target="6Rt76ZgGS8mn4p0-sc7o-282" edge="1">
          <mxGeometry relative="1" as="geometry" />
        </mxCell>
        <mxCell id="6Rt76ZgGS8mn4p0-sc7o-257" value="Check Security Answer" style="rounded=1;whiteSpace=wrap;html=1;absoluteArcSize=1;arcSize=18;strokeWidth=2;" parent="1" vertex="1">
          <mxGeometry x="1304" y="821" width="115" height="37.5" as="geometry" />
        </mxCell>
        <mxCell id="6Rt76ZgGS8mn4p0-sc7o-265" style="edgeStyle=orthogonalEdgeStyle;rounded=0;orthogonalLoop=1;jettySize=auto;html=1;entryX=0.489;entryY=-0.049;entryDx=0;entryDy=0;entryPerimeter=0;" parent="1" target="6Rt76ZgGS8mn4p0-sc7o-262" edge="1">
          <mxGeometry relative="1" as="geometry">
            <mxPoint x="1490" y="806.25" as="sourcePoint" />
            <mxPoint x="1511.5" y="873.25" as="targetPoint" />
            <Array as="points">
              <mxPoint x="1512" y="806.25" />
              <mxPoint x="1512" y="882.25" />
            </Array>
          </mxGeometry>
        </mxCell>
        <mxCell id="6Rt76ZgGS8mn4p0-sc7o-280" style="edgeStyle=orthogonalEdgeStyle;rounded=0;orthogonalLoop=1;jettySize=auto;html=1;exitX=0.5;exitY=1;exitDx=0;exitDy=0;entryX=0.5;entryY=0;entryDx=0;entryDy=0;" parent="1" source="6Rt76ZgGS8mn4p0-sc7o-262" target="6Rt76ZgGS8mn4p0-sc7o-277" edge="1">
          <mxGeometry relative="1" as="geometry" />
        </mxCell>
        <mxCell id="6Rt76ZgGS8mn4p0-sc7o-262" value="Block User Account" style="rounded=1;whiteSpace=wrap;html=1;absoluteArcSize=1;arcSize=18;strokeWidth=2;" parent="1" vertex="1">
          <mxGeometry x="1455" y="884.25" width="115" height="37.5" as="geometry" />
        </mxCell>
        <mxCell id="6Rt76ZgGS8mn4p0-sc7o-270" value="Failure" style="text;html=1;strokeColor=none;fillColor=none;align=center;verticalAlign=middle;whiteSpace=wrap;rounded=0;" parent="1" vertex="1">
          <mxGeometry x="1441.5" y="820.25" width="40" height="20" as="geometry" />
        </mxCell>
        <mxCell id="6Rt76ZgGS8mn4p0-sc7o-271" value="Fail x3" style="text;html=1;strokeColor=none;fillColor=none;align=center;verticalAlign=middle;whiteSpace=wrap;rounded=0;" parent="1" vertex="1">
          <mxGeometry x="1530" y="804.25" width="40" height="20" as="geometry" />
        </mxCell>
        <mxCell id="6Rt76ZgGS8mn4p0-sc7o-277" value="Main Menu&lt;br&gt;" style="shape=process;whiteSpace=wrap;html=1;backgroundOutline=1;size=0.08333333333333333;" parent="1" vertex="1">
          <mxGeometry x="1452.5" y="964.25" width="120" height="62.31" as="geometry" />
        </mxCell>
        <mxCell id="6Rt76ZgGS8mn4p0-sc7o-278" value="&lt;span style=&quot;font-size: 12px;&quot;&gt;&lt;b style=&quot;font-size: 12px;&quot;&gt;1&lt;/b&gt;&lt;/span&gt;" style="text;html=1;strokeColor=none;fillColor=none;align=center;verticalAlign=middle;whiteSpace=wrap;rounded=0;fontSize=12;fontFamily=Helvetica;fontColor=default;" parent="1" vertex="1">
          <mxGeometry x="1526" y="1002.25" width="50" height="27.51" as="geometry" />
        </mxCell>
        <mxCell id="6Rt76ZgGS8mn4p0-sc7o-285" value="" style="edgeStyle=orthogonalEdgeStyle;rounded=0;orthogonalLoop=1;jettySize=auto;html=1;" parent="1" source="6Rt76ZgGS8mn4p0-sc7o-282" target="6Rt76ZgGS8mn4p0-sc7o-284" edge="1">
          <mxGeometry relative="1" as="geometry" />
        </mxCell>
        <mxCell id="6Rt76ZgGS8mn4p0-sc7o-282" value="New &lt;br&gt;Password" style="verticalLabelPosition=middle;verticalAlign=middle;html=1;shape=trapezoid;perimeter=trapezoidPerimeter;whiteSpace=wrap;size=0.23;arcSize=10;flipV=1;labelPosition=center;align=center;" parent="1" vertex="1">
          <mxGeometry x="1311.5" y="890" width="100" height="51" as="geometry" />
        </mxCell>
        <mxCell id="6Rt76ZgGS8mn4p0-sc7o-287" style="edgeStyle=orthogonalEdgeStyle;rounded=0;orthogonalLoop=1;jettySize=auto;html=1;exitX=1;exitY=0.5;exitDx=0;exitDy=0;entryX=0;entryY=0.5;entryDx=0;entryDy=0;" parent="1" source="6Rt76ZgGS8mn4p0-sc7o-284" target="6Rt76ZgGS8mn4p0-sc7o-277" edge="1">
          <mxGeometry relative="1" as="geometry" />
        </mxCell>
        <mxCell id="6Rt76ZgGS8mn4p0-sc7o-284" value="Reset Password" style="rounded=1;whiteSpace=wrap;html=1;absoluteArcSize=1;arcSize=18;strokeWidth=2;" parent="1" vertex="1">
          <mxGeometry x="1304" y="976.66" width="115" height="37.5" as="geometry" />
        </mxCell>
        <mxCell id="6Rt76ZgGS8mn4p0-sc7o-290" value="Failure" style="text;html=1;strokeColor=none;fillColor=none;align=center;verticalAlign=middle;whiteSpace=wrap;rounded=0;" parent="1" vertex="1">
          <mxGeometry x="1117" y="824.25" width="40" height="20" as="geometry" />
        </mxCell>
        <mxCell id="6Rt76ZgGS8mn4p0-sc7o-292" value="&lt;span style=&quot;font-size: 22px;&quot;&gt;&lt;b&gt;3&lt;/b&gt;&lt;/span&gt;" style="text;html=1;strokeColor=none;fillColor=none;align=center;verticalAlign=middle;whiteSpace=wrap;rounded=0;fontSize=12;fontFamily=Helvetica;fontColor=default;" parent="1" vertex="1">
          <mxGeometry x="40" y="1170" width="60" height="30" as="geometry" />
        </mxCell>
        <mxCell id="6Rt76ZgGS8mn4p0-sc7o-293" value="&lt;b&gt;&lt;font style=&quot;font-size: 22px;&quot;&gt;Classroom Management Flowchart&lt;/font&gt;&lt;/b&gt;" style="text;html=1;strokeColor=none;fillColor=none;align=center;verticalAlign=middle;whiteSpace=wrap;rounded=0;fontSize=12;fontFamily=Helvetica;fontColor=default;" parent="1" vertex="1">
          <mxGeometry x="480" y="1180" width="280" height="30" as="geometry" />
        </mxCell>
        <mxCell id="6Rt76ZgGS8mn4p0-sc7o-310" style="edgeStyle=orthogonalEdgeStyle;rounded=0;orthogonalLoop=1;jettySize=auto;html=1;exitX=0;exitY=0.5;exitDx=0;exitDy=0;exitPerimeter=0;entryX=1;entryY=0.5;entryDx=0;entryDy=0;" parent="1" source="6Rt76ZgGS8mn4p0-sc7o-295" target="6Rt76ZgGS8mn4p0-sc7o-303" edge="1">
          <mxGeometry relative="1" as="geometry">
            <Array as="points">
              <mxPoint x="365" y="1286" />
            </Array>
          </mxGeometry>
        </mxCell>
        <mxCell id="6Rt76ZgGS8mn4p0-sc7o-311" style="edgeStyle=orthogonalEdgeStyle;rounded=0;orthogonalLoop=1;jettySize=auto;html=1;exitX=0.5;exitY=1;exitDx=0;exitDy=0;exitPerimeter=0;entryX=0.5;entryY=0;entryDx=0;entryDy=0;" parent="1" source="6Rt76ZgGS8mn4p0-sc7o-295" target="6Rt76ZgGS8mn4p0-sc7o-300" edge="1">
          <mxGeometry relative="1" as="geometry">
            <mxPoint x="520" y="1368" as="targetPoint" />
          </mxGeometry>
        </mxCell>
        <mxCell id="6Rt76ZgGS8mn4p0-sc7o-312" style="edgeStyle=orthogonalEdgeStyle;rounded=0;orthogonalLoop=1;jettySize=auto;html=1;exitX=0.5;exitY=1;exitDx=0;exitDy=0;exitPerimeter=0;entryX=0.528;entryY=0.113;entryDx=0;entryDy=0;entryPerimeter=0;" parent="1" source="6Rt76ZgGS8mn4p0-sc7o-295" target="6Rt76ZgGS8mn4p0-sc7o-301" edge="1">
          <mxGeometry relative="1" as="geometry">
            <mxPoint x="700.0000000000002" y="1368" as="targetPoint" />
          </mxGeometry>
        </mxCell>
        <mxCell id="6Rt76ZgGS8mn4p0-sc7o-314" style="edgeStyle=orthogonalEdgeStyle;rounded=0;orthogonalLoop=1;jettySize=auto;html=1;exitX=0.5;exitY=1;exitDx=0;exitDy=0;exitPerimeter=0;entryX=0.5;entryY=0;entryDx=0;entryDy=0;" parent="1" source="6Rt76ZgGS8mn4p0-sc7o-295" target="6Rt76ZgGS8mn4p0-sc7o-299" edge="1">
          <mxGeometry relative="1" as="geometry" />
        </mxCell>
        <mxCell id="6Rt76ZgGS8mn4p0-sc7o-316" style="edgeStyle=orthogonalEdgeStyle;rounded=0;orthogonalLoop=1;jettySize=auto;html=1;exitX=0.5;exitY=1;exitDx=0;exitDy=0;exitPerimeter=0;entryX=0.5;entryY=0;entryDx=0;entryDy=0;" parent="1" source="6Rt76ZgGS8mn4p0-sc7o-295" target="6Rt76ZgGS8mn4p0-sc7o-298" edge="1">
          <mxGeometry relative="1" as="geometry" />
        </mxCell>
        <mxCell id="6Rt76ZgGS8mn4p0-sc7o-295" value="Administrator Menu" style="strokeWidth=2;html=1;shape=mxgraph.flowchart.terminator;whiteSpace=wrap;" parent="1" vertex="1">
          <mxGeometry x="364.5" y="1264.16" width="119.25" height="50" as="geometry" />
        </mxCell>
        <mxCell id="6Rt76ZgGS8mn4p0-sc7o-298" value="User Accounts" style="rounded=1;whiteSpace=wrap;html=1;absoluteArcSize=1;arcSize=14;strokeWidth=2;" parent="1" vertex="1">
          <mxGeometry x="100" y="1398" width="127" height="34" as="geometry" />
        </mxCell>
        <mxCell id="6Rt76ZgGS8mn4p0-sc7o-299" value="Manage Classes" style="rounded=1;whiteSpace=wrap;html=1;absoluteArcSize=1;arcSize=14;strokeWidth=2;" parent="1" vertex="1">
          <mxGeometry x="280" y="1398" width="127" height="34" as="geometry" />
        </mxCell>
        <mxCell id="6Rt76ZgGS8mn4p0-sc7o-300" value="Student Progress" style="rounded=1;whiteSpace=wrap;html=1;absoluteArcSize=1;arcSize=14;strokeWidth=2;" parent="1" vertex="1">
          <mxGeometry x="454" y="1398" width="127" height="34" as="geometry" />
        </mxCell>
        <mxCell id="6Rt76ZgGS8mn4p0-sc7o-301" value="Messages" style="rounded=1;whiteSpace=wrap;html=1;absoluteArcSize=1;arcSize=14;strokeWidth=2;" parent="1" vertex="1">
          <mxGeometry x="633" y="1398" width="127" height="34" as="geometry" />
        </mxCell>
        <mxCell id="6Rt76ZgGS8mn4p0-sc7o-303" value="Main Menu&lt;br&gt;" style="shape=process;whiteSpace=wrap;html=1;backgroundOutline=1;size=0.08333333333333333;" parent="1" vertex="1">
          <mxGeometry x="190" y="1258" width="109.5" height="56.16" as="geometry" />
        </mxCell>
        <mxCell id="6Rt76ZgGS8mn4p0-sc7o-306" value="&lt;span style=&quot;font-size: 12px;&quot;&gt;&lt;b style=&quot;font-size: 12px;&quot;&gt;1&lt;/b&gt;&lt;/span&gt;" style="text;html=1;strokeColor=none;fillColor=none;align=center;verticalAlign=middle;whiteSpace=wrap;rounded=0;fontSize=12;fontFamily=Helvetica;fontColor=default;" parent="1" vertex="1">
          <mxGeometry x="260" y="1294.8" width="43.5" height="23.2" as="geometry" />
        </mxCell>
        <mxCell id="6Rt76ZgGS8mn4p0-sc7o-317" value="Message" style="swimlane;fontStyle=1;align=center;verticalAlign=top;childLayout=stackLayout;horizontal=1;startSize=26;horizontalStack=0;resizeParent=1;resizeParentMax=0;resizeLast=0;collapsible=1;marginBottom=0;whiteSpace=wrap;html=1;strokeColor=default;fontFamily=Helvetica;fontSize=12;fontColor=default;fillColor=default;" parent="1" vertex="1">
          <mxGeometry x="234.5" y="-440" width="200" height="130" as="geometry">
            <mxRectangle x="600" y="280" width="200" height="30" as="alternateBounds" />
          </mxGeometry>
        </mxCell>
        <mxCell id="6Rt76ZgGS8mn4p0-sc7o-318" value="Subject&lt;br&gt;Body&lt;br&gt;Sender&lt;br&gt;Recipient" style="text;strokeColor=none;fillColor=none;align=left;verticalAlign=top;spacingLeft=4;spacingRight=4;overflow=hidden;rotatable=0;points=[[0,0.5],[1,0.5]];portConstraint=eastwest;whiteSpace=wrap;html=1;fontSize=12;fontFamily=Helvetica;fontColor=default;" parent="6Rt76ZgGS8mn4p0-sc7o-317" vertex="1">
          <mxGeometry y="26" width="200" height="64" as="geometry" />
        </mxCell>
        <mxCell id="6Rt76ZgGS8mn4p0-sc7o-319" value="" style="line;strokeWidth=1;fillColor=none;align=left;verticalAlign=middle;spacingTop=-1;spacingLeft=3;spacingRight=3;rotatable=0;labelPosition=right;points=[];portConstraint=eastwest;strokeColor=inherit;fontFamily=Helvetica;fontSize=12;fontColor=default;startSize=23;html=1;" parent="6Rt76ZgGS8mn4p0-sc7o-317" vertex="1">
          <mxGeometry y="90" width="200" height="8" as="geometry" />
        </mxCell>
        <mxCell id="6Rt76ZgGS8mn4p0-sc7o-320" value="Methods" style="text;strokeColor=none;fillColor=none;align=left;verticalAlign=top;spacingLeft=4;spacingRight=4;overflow=hidden;rotatable=0;points=[[0,0.5],[1,0.5]];portConstraint=eastwest;whiteSpace=wrap;html=1;fontSize=12;fontFamily=Helvetica;fontColor=default;" parent="6Rt76ZgGS8mn4p0-sc7o-317" vertex="1">
          <mxGeometry y="98" width="200" height="32" as="geometry" />
        </mxCell>
        <mxCell id="6Rt76ZgGS8mn4p0-sc7o-330" value="Administrator&lt;br&gt;User Accounts&lt;br&gt;Menu" style="shape=process;whiteSpace=wrap;html=1;backgroundOutline=1;size=0.08333333333333333;" parent="1" vertex="1">
          <mxGeometry x="105.75" y="1540" width="109.5" height="56.16" as="geometry" />
        </mxCell>
        <mxCell id="6Rt76ZgGS8mn4p0-sc7o-332" value="Administrator&lt;br&gt;Manage Classes&lt;br&gt;Menu" style="shape=process;whiteSpace=wrap;html=1;backgroundOutline=1;size=0.08333333333333333;" parent="1" vertex="1">
          <mxGeometry x="288.75" y="1540" width="109.5" height="56.16" as="geometry" />
        </mxCell>
        <mxCell id="6Rt76ZgGS8mn4p0-sc7o-333" value="Administrator&lt;br&gt;Student Progress Menu" style="shape=process;whiteSpace=wrap;html=1;backgroundOutline=1;size=0.08333333333333333;" parent="1" vertex="1">
          <mxGeometry x="462.75" y="1540" width="109.5" height="56.16" as="geometry" />
        </mxCell>
        <mxCell id="6Rt76ZgGS8mn4p0-sc7o-334" value="Administrator&lt;br&gt;Messages&lt;br&gt;Inbox/Outbox" style="shape=process;whiteSpace=wrap;html=1;backgroundOutline=1;size=0.08333333333333333;" parent="1" vertex="1">
          <mxGeometry x="641.75" y="1540" width="109.5" height="56.16" as="geometry" />
        </mxCell>
        <mxCell id="6Rt76ZgGS8mn4p0-sc7o-346" style="edgeStyle=orthogonalEdgeStyle;rounded=0;orthogonalLoop=1;jettySize=auto;html=1;exitX=0;exitY=0.5;exitDx=0;exitDy=0;exitPerimeter=0;entryX=1;entryY=0.5;entryDx=0;entryDy=0;" parent="1" source="6Rt76ZgGS8mn4p0-sc7o-340" target="6Rt76ZgGS8mn4p0-sc7o-344" edge="1">
          <mxGeometry relative="1" as="geometry" />
        </mxCell>
        <mxCell id="6Rt76ZgGS8mn4p0-sc7o-348" value="" style="edgeStyle=orthogonalEdgeStyle;rounded=0;orthogonalLoop=1;jettySize=auto;html=1;" parent="1" source="6Rt76ZgGS8mn4p0-sc7o-340" target="6Rt76ZgGS8mn4p0-sc7o-342" edge="1">
          <mxGeometry relative="1" as="geometry" />
        </mxCell>
        <mxCell id="6Rt76ZgGS8mn4p0-sc7o-349" style="edgeStyle=orthogonalEdgeStyle;rounded=0;orthogonalLoop=1;jettySize=auto;html=1;exitX=0.5;exitY=1;exitDx=0;exitDy=0;exitPerimeter=0;" parent="1" source="6Rt76ZgGS8mn4p0-sc7o-340" target="6Rt76ZgGS8mn4p0-sc7o-341" edge="1">
          <mxGeometry relative="1" as="geometry" />
        </mxCell>
        <mxCell id="6Rt76ZgGS8mn4p0-sc7o-350" style="edgeStyle=orthogonalEdgeStyle;rounded=0;orthogonalLoop=1;jettySize=auto;html=1;exitX=0.5;exitY=1;exitDx=0;exitDy=0;exitPerimeter=0;" parent="1" source="6Rt76ZgGS8mn4p0-sc7o-340" target="6Rt76ZgGS8mn4p0-sc7o-343" edge="1">
          <mxGeometry relative="1" as="geometry" />
        </mxCell>
        <mxCell id="6Rt76ZgGS8mn4p0-sc7o-340" value="Administrator&lt;br&gt;User Accounts" style="strokeWidth=2;html=1;shape=mxgraph.flowchart.terminator;whiteSpace=wrap;" parent="1" vertex="1">
          <mxGeometry x="331.62" y="1698.62" width="111" height="48.75" as="geometry" />
        </mxCell>
        <mxCell id="6Rt76ZgGS8mn4p0-sc7o-341" value="Add/Remove Student" style="rounded=1;whiteSpace=wrap;html=1;absoluteArcSize=1;arcSize=14;strokeWidth=2;" parent="1" vertex="1">
          <mxGeometry x="123.37" y="1798.62" width="127" height="34" as="geometry" />
        </mxCell>
        <mxCell id="6Rt76ZgGS8mn4p0-sc7o-342" value="Add/Remove Instructor" style="rounded=1;whiteSpace=wrap;html=1;absoluteArcSize=1;arcSize=14;strokeWidth=2;" parent="1" vertex="1">
          <mxGeometry x="367.62" y="1798.62" width="142.5" height="34" as="geometry" />
        </mxCell>
        <mxCell id="6Rt76ZgGS8mn4p0-sc7o-343" value="Manage Users" style="rounded=1;whiteSpace=wrap;html=1;absoluteArcSize=1;arcSize=14;strokeWidth=2;" parent="1" vertex="1">
          <mxGeometry x="617.37" y="1799.1799999999998" width="99.5" height="34" as="geometry" />
        </mxCell>
        <mxCell id="6Rt76ZgGS8mn4p0-sc7o-344" value="Administrator Menu" style="shape=process;whiteSpace=wrap;html=1;backgroundOutline=1;size=0.08333333333333333;" parent="1" vertex="1">
          <mxGeometry x="157.37" y="1694" width="109.5" height="56.16" as="geometry" />
        </mxCell>
        <mxCell id="6Rt76ZgGS8mn4p0-sc7o-345" value="&lt;span style=&quot;font-size: 12px;&quot;&gt;&lt;b style=&quot;font-size: 12px;&quot;&gt;3&lt;/b&gt;&lt;/span&gt;" style="text;html=1;strokeColor=none;fillColor=none;align=center;verticalAlign=middle;whiteSpace=wrap;rounded=0;fontSize=12;fontFamily=Helvetica;fontColor=default;" parent="1" vertex="1">
          <mxGeometry x="227.37" y="1729.8" width="43.5" height="23.2" as="geometry" />
        </mxCell>
        <mxCell id="6Rt76ZgGS8mn4p0-sc7o-347" value="&lt;span style=&quot;font-size: 12px;&quot;&gt;&lt;b style=&quot;font-size: 12px;&quot;&gt;3&lt;/b&gt;&lt;/span&gt;" style="text;html=1;strokeColor=none;fillColor=none;align=center;verticalAlign=middle;whiteSpace=wrap;rounded=0;fontSize=12;fontFamily=Helvetica;fontColor=default;" parent="1" vertex="1">
          <mxGeometry x="175.75" y="1575.96" width="43.5" height="23.2" as="geometry" />
        </mxCell>
        <mxCell id="6Rt76ZgGS8mn4p0-sc7o-379" style="edgeStyle=orthogonalEdgeStyle;rounded=0;orthogonalLoop=1;jettySize=auto;html=1;exitX=0;exitY=0.5;exitDx=0;exitDy=0;exitPerimeter=0;" parent="1" source="6Rt76ZgGS8mn4p0-sc7o-351" edge="1">
          <mxGeometry relative="1" as="geometry">
            <mxPoint x="79.37" y="1949.62" as="targetPoint" />
          </mxGeometry>
        </mxCell>
        <mxCell id="6Rt76ZgGS8mn4p0-sc7o-381" style="edgeStyle=orthogonalEdgeStyle;rounded=0;orthogonalLoop=1;jettySize=auto;html=1;exitX=1;exitY=0.5;exitDx=0;exitDy=0;exitPerimeter=0;entryX=0.004;entryY=0.59;entryDx=0;entryDy=0;entryPerimeter=0;" parent="1" source="6Rt76ZgGS8mn4p0-sc7o-351" target="6Rt76ZgGS8mn4p0-sc7o-366" edge="1">
          <mxGeometry relative="1" as="geometry">
            <Array as="points">
              <mxPoint x="264.37" y="1949.62" />
            </Array>
          </mxGeometry>
        </mxCell>
        <mxCell id="6Rt76ZgGS8mn4p0-sc7o-351" value="" style="strokeWidth=2;html=1;shape=mxgraph.flowchart.decision;whiteSpace=wrap;" parent="1" vertex="1">
          <mxGeometry x="158.12" y="1924.62" width="57.5" height="50" as="geometry" />
        </mxCell>
        <mxCell id="6Rt76ZgGS8mn4p0-sc7o-354" value="Canceled" style="text;html=1;strokeColor=none;fillColor=none;align=center;verticalAlign=middle;whiteSpace=wrap;rounded=0;" parent="1" vertex="1">
          <mxGeometry x="103.87" y="1929.4199999999998" width="40" height="20" as="geometry" />
        </mxCell>
        <mxCell id="6Rt76ZgGS8mn4p0-sc7o-360" value="1" style="text;html=1;strokeColor=none;fillColor=none;align=center;verticalAlign=middle;whiteSpace=wrap;rounded=0;" parent="1" vertex="1">
          <mxGeometry x="193.87" y="1939.62" width="20" height="20" as="geometry" />
        </mxCell>
        <mxCell id="6Rt76ZgGS8mn4p0-sc7o-361" value="3" style="text;html=1;strokeColor=none;fillColor=none;align=center;verticalAlign=middle;whiteSpace=wrap;rounded=0;" parent="1" vertex="1">
          <mxGeometry x="161.37" y="1939.62" width="20" height="20" as="geometry" />
        </mxCell>
        <mxCell id="6Rt76ZgGS8mn4p0-sc7o-370" value="" style="edgeStyle=orthogonalEdgeStyle;rounded=0;orthogonalLoop=1;jettySize=auto;html=1;" parent="1" source="6Rt76ZgGS8mn4p0-sc7o-362" target="6Rt76ZgGS8mn4p0-sc7o-369" edge="1">
          <mxGeometry relative="1" as="geometry" />
        </mxCell>
        <mxCell id="6Rt76ZgGS8mn4p0-sc7o-362" value="2" style="text;html=1;strokeColor=none;fillColor=none;align=center;verticalAlign=middle;whiteSpace=wrap;rounded=0;" parent="1" vertex="1">
          <mxGeometry x="176.87" y="1953.62" width="20" height="20" as="geometry" />
        </mxCell>
        <mxCell id="6Rt76ZgGS8mn4p0-sc7o-366" value="&amp;nbsp;Add New User" style="shape=process;whiteSpace=wrap;html=1;backgroundOutline=1;size=0.08333333333333333;" parent="1" vertex="1">
          <mxGeometry x="263.87" y="1924.62" width="95.5" height="44" as="geometry" />
        </mxCell>
        <mxCell id="6Rt76ZgGS8mn4p0-sc7o-367" value="&lt;span style=&quot;font-size: 10px;&quot;&gt;&lt;b style=&quot;font-size: 10px;&quot;&gt;4&lt;/b&gt;&lt;/span&gt;" style="text;html=1;strokeColor=none;fillColor=none;align=center;verticalAlign=middle;whiteSpace=wrap;rounded=0;fontSize=10;fontFamily=Helvetica;fontColor=default;" parent="1" vertex="1">
          <mxGeometry x="322.62" y="1949.4199999999998" width="45" height="24.2" as="geometry" />
        </mxCell>
        <mxCell id="6Rt76ZgGS8mn4p0-sc7o-373" value="" style="edgeStyle=orthogonalEdgeStyle;rounded=0;orthogonalLoop=1;jettySize=auto;html=1;" parent="1" source="6Rt76ZgGS8mn4p0-sc7o-369" target="6Rt76ZgGS8mn4p0-sc7o-371" edge="1">
          <mxGeometry relative="1" as="geometry" />
        </mxCell>
        <mxCell id="6Rt76ZgGS8mn4p0-sc7o-369" value="Email&lt;br&gt;Address&lt;br&gt;ID#" style="verticalLabelPosition=middle;verticalAlign=middle;html=1;shape=trapezoid;perimeter=trapezoidPerimeter;whiteSpace=wrap;size=0.23;arcSize=10;flipV=1;labelPosition=center;align=center;" parent="1" vertex="1">
          <mxGeometry x="145.89000000000001" y="1998.62" width="81.96" height="50" as="geometry" />
        </mxCell>
        <mxCell id="6Rt76ZgGS8mn4p0-sc7o-375" style="edgeStyle=orthogonalEdgeStyle;rounded=0;orthogonalLoop=1;jettySize=auto;html=1;exitX=0;exitY=0.5;exitDx=0;exitDy=0;entryX=0;entryY=0.5;entryDx=0;entryDy=0;" parent="1" source="6Rt76ZgGS8mn4p0-sc7o-371" target="6Rt76ZgGS8mn4p0-sc7o-344" edge="1">
          <mxGeometry relative="1" as="geometry">
            <Array as="points">
              <mxPoint x="79.37" y="2095.62" />
              <mxPoint x="79.37" y="1722.62" />
            </Array>
          </mxGeometry>
        </mxCell>
        <mxCell id="6Rt76ZgGS8mn4p0-sc7o-371" value="Remove User" style="rounded=1;whiteSpace=wrap;html=1;absoluteArcSize=1;arcSize=14;strokeWidth=2;" parent="1" vertex="1">
          <mxGeometry x="137.12" y="2078.62" width="99.5" height="34" as="geometry" />
        </mxCell>
        <mxCell id="6Rt76ZgGS8mn4p0-sc7o-396" style="edgeStyle=orthogonalEdgeStyle;rounded=0;orthogonalLoop=1;jettySize=auto;html=1;exitX=0;exitY=0.5;exitDx=0;exitDy=0;exitPerimeter=0;entryX=1;entryY=0.5;entryDx=0;entryDy=0;" parent="1" source="6Rt76ZgGS8mn4p0-sc7o-385" target="6Rt76ZgGS8mn4p0-sc7o-366" edge="1">
          <mxGeometry relative="1" as="geometry" />
        </mxCell>
        <mxCell id="6Rt76ZgGS8mn4p0-sc7o-406" style="edgeStyle=orthogonalEdgeStyle;rounded=0;orthogonalLoop=1;jettySize=auto;html=1;exitX=1;exitY=0.5;exitDx=0;exitDy=0;exitPerimeter=0;" parent="1" source="6Rt76ZgGS8mn4p0-sc7o-385" edge="1">
          <mxGeometry relative="1" as="geometry">
            <mxPoint x="439.37" y="2138.62" as="targetPoint" />
            <Array as="points">
              <mxPoint x="509.37" y="1946.62" />
              <mxPoint x="509.37" y="2138.62" />
            </Array>
          </mxGeometry>
        </mxCell>
        <mxCell id="6Rt76ZgGS8mn4p0-sc7o-385" value="" style="strokeWidth=2;html=1;shape=mxgraph.flowchart.decision;whiteSpace=wrap;" parent="1" vertex="1">
          <mxGeometry x="409.37" y="1921.62" width="58.5" height="50" as="geometry" />
        </mxCell>
        <mxCell id="6Rt76ZgGS8mn4p0-sc7o-386" value="1" style="text;html=1;strokeColor=none;fillColor=none;align=center;verticalAlign=middle;whiteSpace=wrap;rounded=0;" parent="1" vertex="1">
          <mxGeometry x="410.37" y="1936.62" width="20" height="20" as="geometry" />
        </mxCell>
        <mxCell id="6Rt76ZgGS8mn4p0-sc7o-387" value="3" style="text;html=1;strokeColor=none;fillColor=none;align=center;verticalAlign=middle;whiteSpace=wrap;rounded=0;" parent="1" vertex="1">
          <mxGeometry x="443.87" y="1936.62" width="20" height="20" as="geometry" />
        </mxCell>
        <mxCell id="6Rt76ZgGS8mn4p0-sc7o-402" value="" style="edgeStyle=orthogonalEdgeStyle;rounded=0;orthogonalLoop=1;jettySize=auto;html=1;" parent="1" source="6Rt76ZgGS8mn4p0-sc7o-389" target="6Rt76ZgGS8mn4p0-sc7o-401" edge="1">
          <mxGeometry relative="1" as="geometry" />
        </mxCell>
        <mxCell id="6Rt76ZgGS8mn4p0-sc7o-389" value="2" style="text;html=1;strokeColor=none;fillColor=none;align=center;verticalAlign=middle;whiteSpace=wrap;rounded=0;" parent="1" vertex="1">
          <mxGeometry x="428.12" y="1951.62" width="20" height="20" as="geometry" />
        </mxCell>
        <mxCell id="6Rt76ZgGS8mn4p0-sc7o-400" value="Email&lt;br&gt;Address&lt;br&gt;ID#" style="verticalLabelPosition=middle;verticalAlign=middle;html=1;shape=trapezoid;perimeter=trapezoidPerimeter;whiteSpace=wrap;size=0.23;arcSize=10;flipV=1;labelPosition=center;align=center;" parent="1" vertex="1">
          <mxGeometry x="145.89000000000001" y="1998.62" width="81.96" height="50" as="geometry" />
        </mxCell>
        <mxCell id="6Rt76ZgGS8mn4p0-sc7o-404" value="" style="edgeStyle=orthogonalEdgeStyle;rounded=0;orthogonalLoop=1;jettySize=auto;html=1;" parent="1" source="6Rt76ZgGS8mn4p0-sc7o-401" target="6Rt76ZgGS8mn4p0-sc7o-403" edge="1">
          <mxGeometry relative="1" as="geometry" />
        </mxCell>
        <mxCell id="6Rt76ZgGS8mn4p0-sc7o-401" value="Email&lt;br&gt;Address&lt;br&gt;ID#" style="verticalLabelPosition=middle;verticalAlign=middle;html=1;shape=trapezoid;perimeter=trapezoidPerimeter;whiteSpace=wrap;size=0.23;arcSize=10;flipV=1;labelPosition=center;align=center;" parent="1" vertex="1">
          <mxGeometry x="397.14" y="1998.62" width="81.96" height="50" as="geometry" />
        </mxCell>
        <mxCell id="6Rt76ZgGS8mn4p0-sc7o-405" style="edgeStyle=orthogonalEdgeStyle;rounded=0;orthogonalLoop=1;jettySize=auto;html=1;exitX=0.5;exitY=1;exitDx=0;exitDy=0;" parent="1" source="6Rt76ZgGS8mn4p0-sc7o-403" edge="1">
          <mxGeometry relative="1" as="geometry">
            <mxPoint x="79.37" y="2095.62" as="targetPoint" />
            <Array as="points">
              <mxPoint x="439.37" y="2112.62" />
              <mxPoint x="439.37" y="2138.62" />
              <mxPoint x="79.37" y="2138.62" />
            </Array>
          </mxGeometry>
        </mxCell>
        <mxCell id="6Rt76ZgGS8mn4p0-sc7o-403" value="Remove User" style="rounded=1;whiteSpace=wrap;html=1;absoluteArcSize=1;arcSize=14;strokeWidth=2;" parent="1" vertex="1">
          <mxGeometry x="388.37" y="2078.62" width="99.5" height="34" as="geometry" />
        </mxCell>
        <mxCell id="6Rt76ZgGS8mn4p0-sc7o-407" value="&lt;span style=&quot;font-size: 22px;&quot;&gt;&lt;b&gt;4&lt;/b&gt;&lt;/span&gt;" style="text;html=1;strokeColor=none;fillColor=none;align=center;verticalAlign=middle;whiteSpace=wrap;rounded=0;fontSize=12;fontFamily=Helvetica;fontColor=default;" parent="1" vertex="1">
          <mxGeometry x="880" y="1170" width="60" height="30" as="geometry" />
        </mxCell>
        <mxCell id="6Rt76ZgGS8mn4p0-sc7o-408" value="&lt;b&gt;&lt;font style=&quot;font-size: 22px;&quot;&gt;Classroom Management Flowchart&lt;/font&gt;&lt;/b&gt;" style="text;html=1;strokeColor=none;fillColor=none;align=center;verticalAlign=middle;whiteSpace=wrap;rounded=0;fontSize=12;fontFamily=Helvetica;fontColor=default;" parent="1" vertex="1">
          <mxGeometry x="1320" y="1180" width="280" height="30" as="geometry" />
        </mxCell>
        <mxCell id="6Rt76ZgGS8mn4p0-sc7o-417" value="" style="edgeStyle=orthogonalEdgeStyle;rounded=0;orthogonalLoop=1;jettySize=auto;html=1;" parent="1" source="6Rt76ZgGS8mn4p0-sc7o-411" target="6Rt76ZgGS8mn4p0-sc7o-414" edge="1">
          <mxGeometry relative="1" as="geometry" />
        </mxCell>
        <mxCell id="6Rt76ZgGS8mn4p0-sc7o-411" value="Search&lt;br&gt;Input" style="verticalLabelPosition=middle;verticalAlign=middle;html=1;shape=trapezoid;perimeter=trapezoidPerimeter;whiteSpace=wrap;size=0.23;arcSize=10;flipV=1;labelPosition=center;align=center;" parent="1" vertex="1">
          <mxGeometry x="623.14" y="1921.62" width="81.96" height="50" as="geometry" />
        </mxCell>
        <mxCell id="6Rt76ZgGS8mn4p0-sc7o-419" style="edgeStyle=orthogonalEdgeStyle;rounded=0;orthogonalLoop=1;jettySize=auto;html=1;exitX=0.5;exitY=1;exitDx=0;exitDy=0;exitPerimeter=0;" parent="1" source="6Rt76ZgGS8mn4p0-sc7o-413" edge="1">
          <mxGeometry relative="1" as="geometry">
            <mxPoint x="509.37" y="2138.62" as="targetPoint" />
            <Array as="points">
              <mxPoint x="664.37" y="2138.62" />
            </Array>
          </mxGeometry>
        </mxCell>
        <mxCell id="6Rt76ZgGS8mn4p0-sc7o-424" value="" style="edgeStyle=orthogonalEdgeStyle;rounded=0;orthogonalLoop=1;jettySize=auto;html=1;" parent="1" source="6Rt76ZgGS8mn4p0-sc7o-413" target="6Rt76ZgGS8mn4p0-sc7o-422" edge="1">
          <mxGeometry relative="1" as="geometry" />
        </mxCell>
        <mxCell id="6Rt76ZgGS8mn4p0-sc7o-429" style="edgeStyle=orthogonalEdgeStyle;rounded=0;orthogonalLoop=1;jettySize=auto;html=1;exitX=1;exitY=0.5;exitDx=0;exitDy=0;exitPerimeter=0;entryX=0;entryY=0.5;entryDx=0;entryDy=0;" parent="1" source="6Rt76ZgGS8mn4p0-sc7o-413" target="6Rt76ZgGS8mn4p0-sc7o-428" edge="1">
          <mxGeometry relative="1" as="geometry" />
        </mxCell>
        <mxCell id="6Rt76ZgGS8mn4p0-sc7o-413" value="" style="strokeWidth=2;html=1;shape=mxgraph.flowchart.decision;whiteSpace=wrap;" parent="1" vertex="1">
          <mxGeometry x="635.12" y="2058.62" width="58.5" height="50" as="geometry" />
        </mxCell>
        <mxCell id="6Rt76ZgGS8mn4p0-sc7o-418" value="" style="edgeStyle=orthogonalEdgeStyle;rounded=0;orthogonalLoop=1;jettySize=auto;html=1;" parent="1" source="6Rt76ZgGS8mn4p0-sc7o-414" target="6Rt76ZgGS8mn4p0-sc7o-413" edge="1">
          <mxGeometry relative="1" as="geometry" />
        </mxCell>
        <mxCell id="6Rt76ZgGS8mn4p0-sc7o-414" value="Choose User" style="rounded=1;whiteSpace=wrap;html=1;absoluteArcSize=1;arcSize=14;strokeWidth=2;" parent="1" vertex="1">
          <mxGeometry x="614.62" y="1998.62" width="99.5" height="34" as="geometry" />
        </mxCell>
        <mxCell id="6Rt76ZgGS8mn4p0-sc7o-420" value="Canceled" style="text;html=1;strokeColor=none;fillColor=none;align=center;verticalAlign=middle;whiteSpace=wrap;rounded=0;" parent="1" vertex="1">
          <mxGeometry x="611.12" y="2118.62" width="40" height="20" as="geometry" />
        </mxCell>
        <mxCell id="6Rt76ZgGS8mn4p0-sc7o-421" value="3" style="text;html=1;strokeColor=none;fillColor=none;align=center;verticalAlign=middle;whiteSpace=wrap;rounded=0;" parent="1" vertex="1">
          <mxGeometry x="654.12" y="2088.62" width="20" height="20" as="geometry" />
        </mxCell>
        <mxCell id="6Rt76ZgGS8mn4p0-sc7o-427" style="edgeStyle=orthogonalEdgeStyle;rounded=0;orthogonalLoop=1;jettySize=auto;html=1;exitX=0.5;exitY=1;exitDx=0;exitDy=0;" parent="1" source="6Rt76ZgGS8mn4p0-sc7o-422" edge="1">
          <mxGeometry relative="1" as="geometry">
            <mxPoint x="568.37" y="2138.62" as="targetPoint" />
          </mxGeometry>
        </mxCell>
        <mxCell id="6Rt76ZgGS8mn4p0-sc7o-422" value="Block / Unblock" style="rounded=1;whiteSpace=wrap;html=1;absoluteArcSize=1;arcSize=14;strokeWidth=2;fontSize=10;" parent="1" vertex="1">
          <mxGeometry x="525.87" y="2071.49" width="85.25" height="24.25" as="geometry" />
        </mxCell>
        <mxCell id="6Rt76ZgGS8mn4p0-sc7o-428" value="&amp;nbsp;Manage User Information" style="shape=process;whiteSpace=wrap;html=1;backgroundOutline=1;size=0.08333333333333333;" parent="1" vertex="1">
          <mxGeometry x="726" y="2053.62" width="95.5" height="60" as="geometry" />
        </mxCell>
        <mxCell id="6Rt76ZgGS8mn4p0-sc7o-430" value="1" style="text;html=1;strokeColor=none;fillColor=none;align=center;verticalAlign=middle;whiteSpace=wrap;rounded=0;" parent="1" vertex="1">
          <mxGeometry x="670.62" y="2073.74" width="20" height="20" as="geometry" />
        </mxCell>
        <mxCell id="6Rt76ZgGS8mn4p0-sc7o-431" value="2" style="text;html=1;strokeColor=none;fillColor=none;align=center;verticalAlign=middle;whiteSpace=wrap;rounded=0;" parent="1" vertex="1">
          <mxGeometry x="637.12" y="2073.74" width="20" height="20" as="geometry" />
        </mxCell>
        <mxCell id="6Rt76ZgGS8mn4p0-sc7o-432" value="&lt;span style=&quot;font-size: 10px;&quot;&gt;&lt;b style=&quot;font-size: 10px;&quot;&gt;4&lt;/b&gt;&lt;/span&gt;" style="text;html=1;strokeColor=none;fillColor=none;align=center;verticalAlign=middle;whiteSpace=wrap;rounded=0;fontSize=10;fontFamily=Helvetica;fontColor=default;" parent="1" vertex="1">
          <mxGeometry x="784" y="2093.74" width="45" height="24.2" as="geometry" />
        </mxCell>
        <mxCell id="xCRmx5UfHdt6KgPNWkzm-5" value="" style="edgeStyle=orthogonalEdgeStyle;rounded=0;orthogonalLoop=1;jettySize=auto;html=1;" edge="1" parent="1" source="xCRmx5UfHdt6KgPNWkzm-1" target="xCRmx5UfHdt6KgPNWkzm-4">
          <mxGeometry relative="1" as="geometry" />
        </mxCell>
        <mxCell id="xCRmx5UfHdt6KgPNWkzm-1" value="Add New User" style="strokeWidth=2;html=1;shape=mxgraph.flowchart.terminator;whiteSpace=wrap;" vertex="1" parent="1">
          <mxGeometry x="1213.56" y="1265.3" width="120.88" height="48.75" as="geometry" />
        </mxCell>
        <mxCell id="xCRmx5UfHdt6KgPNWkzm-4" value="Administrator&lt;br&gt;Menu" style="shape=process;whiteSpace=wrap;html=1;backgroundOutline=1;size=0.08333333333333333;" vertex="1" parent="1">
          <mxGeometry x="950" y="1262.3" width="109.5" height="56.16" as="geometry" />
        </mxCell>
        <mxCell id="xCRmx5UfHdt6KgPNWkzm-6" value="&lt;span style=&quot;font-size: 12px;&quot;&gt;&lt;b style=&quot;font-size: 12px;&quot;&gt;3&lt;/b&gt;&lt;/span&gt;" style="text;html=1;strokeColor=none;fillColor=none;align=center;verticalAlign=middle;whiteSpace=wrap;rounded=0;fontSize=12;fontFamily=Helvetica;fontColor=default;" vertex="1" parent="1">
          <mxGeometry x="1020" y="1299.1" width="43.5" height="23.2" as="geometry" />
        </mxCell>
        <mxCell id="xCRmx5UfHdt6KgPNWkzm-10" value="New Administrator" style="rounded=1;whiteSpace=wrap;html=1;absoluteArcSize=1;arcSize=14;strokeWidth=2;" vertex="1" parent="1">
          <mxGeometry x="975.5" y="1440" width="127" height="34" as="geometry" />
        </mxCell>
        <mxCell id="xCRmx5UfHdt6KgPNWkzm-12" value="New Instructor" style="rounded=1;whiteSpace=wrap;html=1;absoluteArcSize=1;arcSize=14;strokeWidth=2;" vertex="1" parent="1">
          <mxGeometry x="1213.5" y="1440" width="127" height="34" as="geometry" />
        </mxCell>
        <mxCell id="xCRmx5UfHdt6KgPNWkzm-14" value="New Student" style="rounded=1;whiteSpace=wrap;html=1;absoluteArcSize=1;arcSize=14;strokeWidth=2;" vertex="1" parent="1">
          <mxGeometry x="1446" y="1440" width="127" height="34" as="geometry" />
        </mxCell>
        <mxCell id="xCRmx5UfHdt6KgPNWkzm-19" style="edgeStyle=orthogonalEdgeStyle;rounded=0;orthogonalLoop=1;jettySize=auto;html=1;exitX=0.5;exitY=1;exitDx=0;exitDy=0;entryX=0.5;entryY=0;entryDx=0;entryDy=0;" edge="1" parent="1" source="xCRmx5UfHdt6KgPNWkzm-3" target="xCRmx5UfHdt6KgPNWkzm-10">
          <mxGeometry relative="1" as="geometry" />
        </mxCell>
        <mxCell id="xCRmx5UfHdt6KgPNWkzm-20" style="edgeStyle=orthogonalEdgeStyle;rounded=0;orthogonalLoop=1;jettySize=auto;html=1;exitX=0.5;exitY=1;exitDx=0;exitDy=0;entryX=0.5;entryY=0;entryDx=0;entryDy=0;" edge="1" parent="1" source="xCRmx5UfHdt6KgPNWkzm-3" target="xCRmx5UfHdt6KgPNWkzm-14">
          <mxGeometry relative="1" as="geometry" />
        </mxCell>
        <mxCell id="xCRmx5UfHdt6KgPNWkzm-22" style="edgeStyle=orthogonalEdgeStyle;rounded=0;orthogonalLoop=1;jettySize=auto;html=1;exitX=0.5;exitY=1;exitDx=0;exitDy=0;entryX=0.5;entryY=0;entryDx=0;entryDy=0;" edge="1" parent="1" source="xCRmx5UfHdt6KgPNWkzm-3" target="xCRmx5UfHdt6KgPNWkzm-12">
          <mxGeometry relative="1" as="geometry" />
        </mxCell>
        <mxCell id="xCRmx5UfHdt6KgPNWkzm-41" style="edgeStyle=orthogonalEdgeStyle;rounded=0;orthogonalLoop=1;jettySize=auto;html=1;exitX=0;exitY=0.5;exitDx=0;exitDy=0;" edge="1" parent="1" target="xCRmx5UfHdt6KgPNWkzm-10">
          <mxGeometry relative="1" as="geometry">
            <mxPoint x="980.5" y="1610.75" as="sourcePoint" />
            <mxPoint x="975.5" y="1452" as="targetPoint" />
            <Array as="points">
              <mxPoint x="920" y="1611" />
              <mxPoint x="920" y="1450" />
            </Array>
          </mxGeometry>
        </mxCell>
        <mxCell id="xCRmx5UfHdt6KgPNWkzm-53" value="" style="edgeStyle=orthogonalEdgeStyle;rounded=0;orthogonalLoop=1;jettySize=auto;html=1;" edge="1" parent="1" source="xCRmx5UfHdt6KgPNWkzm-29" target="xCRmx5UfHdt6KgPNWkzm-50">
          <mxGeometry relative="1" as="geometry" />
        </mxCell>
        <mxCell id="xCRmx5UfHdt6KgPNWkzm-29" value="Regex Check" style="rounded=1;whiteSpace=wrap;html=1;absoluteArcSize=1;arcSize=18;strokeWidth=2;" vertex="1" parent="1">
          <mxGeometry x="980.5" y="1590" width="115" height="37.5" as="geometry" />
        </mxCell>
        <mxCell id="xCRmx5UfHdt6KgPNWkzm-44" style="edgeStyle=orthogonalEdgeStyle;rounded=0;orthogonalLoop=1;jettySize=auto;html=1;exitX=0;exitY=0.5;exitDx=0;exitDy=0;" edge="1" parent="1" source="xCRmx5UfHdt6KgPNWkzm-36" target="xCRmx5UfHdt6KgPNWkzm-12">
          <mxGeometry relative="1" as="geometry">
            <Array as="points">
              <mxPoint x="1160" y="1609" />
              <mxPoint x="1160" y="1450" />
            </Array>
          </mxGeometry>
        </mxCell>
        <mxCell id="xCRmx5UfHdt6KgPNWkzm-54" value="" style="edgeStyle=orthogonalEdgeStyle;rounded=0;orthogonalLoop=1;jettySize=auto;html=1;" edge="1" parent="1" source="xCRmx5UfHdt6KgPNWkzm-36" target="xCRmx5UfHdt6KgPNWkzm-52">
          <mxGeometry relative="1" as="geometry" />
        </mxCell>
        <mxCell id="xCRmx5UfHdt6KgPNWkzm-36" value="Regex Check" style="rounded=1;whiteSpace=wrap;html=1;absoluteArcSize=1;arcSize=18;strokeWidth=2;" vertex="1" parent="1">
          <mxGeometry x="1220" y="1590" width="115" height="37.5" as="geometry" />
        </mxCell>
        <mxCell id="xCRmx5UfHdt6KgPNWkzm-55" value="" style="edgeStyle=orthogonalEdgeStyle;rounded=0;orthogonalLoop=1;jettySize=auto;html=1;" edge="1" parent="1" source="xCRmx5UfHdt6KgPNWkzm-37" target="xCRmx5UfHdt6KgPNWkzm-51">
          <mxGeometry relative="1" as="geometry" />
        </mxCell>
        <mxCell id="xCRmx5UfHdt6KgPNWkzm-37" value="Regex Check" style="rounded=1;whiteSpace=wrap;html=1;absoluteArcSize=1;arcSize=18;strokeWidth=2;" vertex="1" parent="1">
          <mxGeometry x="1451" y="1590" width="115" height="37.5" as="geometry" />
        </mxCell>
        <mxCell id="xCRmx5UfHdt6KgPNWkzm-42" value="Failure" style="text;html=1;strokeColor=none;fillColor=none;align=center;verticalAlign=middle;whiteSpace=wrap;rounded=0;" vertex="1" parent="1">
          <mxGeometry x="930" y="1589" width="40" height="20" as="geometry" />
        </mxCell>
        <mxCell id="xCRmx5UfHdt6KgPNWkzm-45" value="Failure" style="text;html=1;strokeColor=none;fillColor=none;align=center;verticalAlign=middle;whiteSpace=wrap;rounded=0;" vertex="1" parent="1">
          <mxGeometry x="1170" y="1589" width="40" height="20" as="geometry" />
        </mxCell>
        <mxCell id="xCRmx5UfHdt6KgPNWkzm-46" style="edgeStyle=orthogonalEdgeStyle;rounded=0;orthogonalLoop=1;jettySize=auto;html=1;exitX=0;exitY=0.5;exitDx=0;exitDy=0;" edge="1" parent="1">
          <mxGeometry relative="1" as="geometry">
            <mxPoint x="1450.5" y="1609" as="sourcePoint" />
            <mxPoint x="1446.5" y="1450" as="targetPoint" />
            <Array as="points">
              <mxPoint x="1392.5" y="1609" />
              <mxPoint x="1392.5" y="1450" />
            </Array>
          </mxGeometry>
        </mxCell>
        <mxCell id="xCRmx5UfHdt6KgPNWkzm-47" value="Failure" style="text;html=1;strokeColor=none;fillColor=none;align=center;verticalAlign=middle;whiteSpace=wrap;rounded=0;" vertex="1" parent="1">
          <mxGeometry x="1403" y="1589" width="40" height="20" as="geometry" />
        </mxCell>
        <mxCell id="xCRmx5UfHdt6KgPNWkzm-59" style="edgeStyle=orthogonalEdgeStyle;rounded=0;orthogonalLoop=1;jettySize=auto;html=1;exitX=0.5;exitY=1;exitDx=0;exitDy=0;entryX=0;entryY=0.5;entryDx=0;entryDy=0;" edge="1" parent="1" source="xCRmx5UfHdt6KgPNWkzm-50" target="xCRmx5UfHdt6KgPNWkzm-56">
          <mxGeometry relative="1" as="geometry" />
        </mxCell>
        <mxCell id="xCRmx5UfHdt6KgPNWkzm-50" value="Admin Constructor&lt;br&gt;Add to List of Staff" style="rounded=1;whiteSpace=wrap;html=1;absoluteArcSize=1;arcSize=18;strokeWidth=2;" vertex="1" parent="1">
          <mxGeometry x="980.5" y="1666" width="115" height="44.19" as="geometry" />
        </mxCell>
        <mxCell id="xCRmx5UfHdt6KgPNWkzm-58" style="edgeStyle=orthogonalEdgeStyle;rounded=0;orthogonalLoop=1;jettySize=auto;html=1;exitX=0.5;exitY=1;exitDx=0;exitDy=0;entryX=1;entryY=0.5;entryDx=0;entryDy=0;" edge="1" parent="1" source="xCRmx5UfHdt6KgPNWkzm-51" target="xCRmx5UfHdt6KgPNWkzm-56">
          <mxGeometry relative="1" as="geometry" />
        </mxCell>
        <mxCell id="xCRmx5UfHdt6KgPNWkzm-51" value="Student&lt;br&gt;Constructor&lt;br&gt;Add Students List" style="rounded=1;whiteSpace=wrap;html=1;absoluteArcSize=1;arcSize=18;strokeWidth=2;" vertex="1" parent="1">
          <mxGeometry x="1451" y="1663" width="115" height="50.19" as="geometry" />
        </mxCell>
        <mxCell id="xCRmx5UfHdt6KgPNWkzm-57" value="" style="edgeStyle=orthogonalEdgeStyle;rounded=0;orthogonalLoop=1;jettySize=auto;html=1;" edge="1" parent="1" source="xCRmx5UfHdt6KgPNWkzm-52" target="xCRmx5UfHdt6KgPNWkzm-56">
          <mxGeometry relative="1" as="geometry" />
        </mxCell>
        <mxCell id="xCRmx5UfHdt6KgPNWkzm-52" value="Instructor Constructor&lt;br&gt;Add to List of Staff" style="rounded=1;whiteSpace=wrap;html=1;absoluteArcSize=1;arcSize=18;strokeWidth=2;" vertex="1" parent="1">
          <mxGeometry x="1211" y="1666" width="133.5" height="44.19" as="geometry" />
        </mxCell>
        <mxCell id="xCRmx5UfHdt6KgPNWkzm-56" value="Administrator&lt;br&gt;Menu" style="shape=process;whiteSpace=wrap;html=1;backgroundOutline=1;size=0.08333333333333333;" vertex="1" parent="1">
          <mxGeometry x="1222.5" y="1742.46" width="109.5" height="56.16" as="geometry" />
        </mxCell>
        <mxCell id="xCRmx5UfHdt6KgPNWkzm-60" value="&lt;span style=&quot;font-size: 12px;&quot;&gt;&lt;b style=&quot;font-size: 12px;&quot;&gt;3&lt;/b&gt;&lt;/span&gt;" style="text;html=1;strokeColor=none;fillColor=none;align=center;verticalAlign=middle;whiteSpace=wrap;rounded=0;fontSize=12;fontFamily=Helvetica;fontColor=default;" vertex="1" parent="1">
          <mxGeometry x="1293.94" y="1778.98" width="43.5" height="23.2" as="geometry" />
        </mxCell>
      </root>
    </mxGraphModel>
  </diagram>
</mxfile>
